<?xml version="1.0" standalone="no"?>
<!DOCTYPE svg PUBLIC "-//W3C//DTD SVG 1.1//EN" "http://www.w3.org/Graphics/SVG/1.1/DTD/svg11.dtd">
<svg xmlns="http://www.w3.org/2000/svg">
<metadata>Generated by Fontastic.me</metadata>
<defs>
<font id="glyphicons" horiz-adv-x="512">
<font-face font-family="glyphicons" units-per-em="512" ascent="480" descent="-32"/>
<missing-glyph horiz-adv-x="512" />

<glyph glyph-name="accessibility" unicode="&#57344;" d="M184 288l0 18c-55-24-94-80-94-145 0-87 70-157 158-157 31 0 60 9 85 25l0 19c-24-17-53-28-85-28-78 0-142 63-142 142 0 55 32 103 78 126m237-63c0 17-14 31-31 31l-116 0 0 137c0 17-13 31-30 32 22 0 40 19 40 42 0 23-18 42-42 42-23 0-42-19-42-42 0-23 18-42 41-42-17-1-30-15-30-32l0-168c0-18 14-32 31-32l116 0 0-158c0-17 14-31 32-31 17 0 31 14 31 31l0 188c0 0 0 1 0 2"/>
<glyph glyph-name="address" unicode="&#57346;" d="M218 486l-23 0c-6 0-11-4-11-10l0-97-90 0c-4 0-10-1-15-3-5-1-10-3-13-6l-61-41c-3-3-5-6-5-9 0-3 2-6 5-9l61-41c3-3 8-5 13-6 5-2 11-3 15-3l90 0 0-225c0-6 5-10 11-10l23 0c5 0 10 4 10 10l0 440c0 6-5 10-10 10z m289-106l-61 42c-3 2-8 4-13 6-5 1-11 2-15 2l-175 0 21-118 154 0c4 0 10 1 15 3 5 1 10 4 13 6l61 42c3 2 5 5 5 8 0 3-2 6-5 9z"/>
<glyph glyph-name="airplane" unicode="&#57347;" d="M353 371c-5-3-11-5-17-8l-252 117-22-10 187-151c-59-30-123-65-159-88l-84 57-6-3 68-70c-6-5-9-9-8-10 1-2 5-3 13-1l8-97 6 2 12 101c42 12 110 37 172 61l-9-239 21 10 78 266c6 3 12 6 17 8 80 37 140 79 133 94-6 15-77-3-158-39z"/>
<glyph glyph-name="alarm-clock" unicode="&#57348;" d="M256 352c-18 0-32-14-32-32l0-83-23-23c-8-8-9-15-9-22 0-18 14-32 32-32 9 0 17 4 22 9l33 34c5 4 9 12 9 21l0 96c0 18-14 32-32 32z m0 96c-124 0-224-100-224-224 0-50 17-97 45-134l-36-36c-6-6-9-14-9-22 0-19 16-32 32-32 8 0 16 3 22 9l36 36c37-28 84-45 134-45 50 0 97 17 134 45l36-36c6-6 14-9 22-9 16 0 32 13 32 32 0 8-3 16-9 22l-36 36c28 37 45 84 45 134 0 124-100 224-224 224z m0-384c-88 0-160 72-160 160 0 88 72 160 160 160 88 0 160-72 160-160 0-88-72-160-160-160z m160 448c-34 0-64-18-81-45 63-20 115-64 146-121 19 17 31 42 31 70 0 53-43 96-96 96z m-239-45c-17 27-47 45-81 45-53 0-96-43-96-96 0-28 12-53 31-70 31 57 83 101 146 121z"/>
<glyph glyph-name="amazon" unicode="&#57355;" d="M409 106c-2 0-4-1-6-2-2-1-5-2-7-3l-3-1-5-2 0 0c-46-19-95-30-140-31-1 0-3 0-5 0-71 0-129 33-187 66-2 1-4 1-6 1-3 0-6-1-8-3-1-2-3-4-3-7 0-3 2-7 5-9 55-47 115-92 196-92 1 0 3 0 4 0 52 2 110 19 155 47l0 0c6 4 12 8 18 12 3 3 6 7 6 11-1 8-7 13-14 13z m63 26l0 0c0 4-1 8-3 11l0 0 0 0c-2 2-4 3-6 4-6 2-15 3-25 4-8 0-16-1-24-3l0 1-8-3-1 0-4-2 0 0c-6-2-11-5-15-9-3-2-6-5-6-9 0-2 1-5 3-7 2-1 5-2 7-2 0 0 1 0 1 0l0 0 1 0c4 1 10 2 17 3 6 0 12 1 17 1 4 0 8 0 10-1 1 0 2 0 3-1 0 0 0 0 0 0 0 0 0-1 0-2 0-5-2-13-4-22-3-8-6-16-8-22-1-1-1-2-1-4 0-2 1-5 3-7 2-1 4-2 6-2l0 0c3 0 6 1 8 3 21 19 29 49 29 66z m-193 203c-13-1-27-1-41-3-22-3-44-7-62-16-36-14-59-45-59-89 0-57 36-85 82-85 15 0 27 2 39 4 18 6 33 17 51 36 11-15 14-21 32-37 5-1 9-1 13 1 12 10 32 27 42 37 5 4 4 9 1 14-10 13-21 25-21 51l0 86c0 36 3 69-24 94-22 20-56 28-83 28l-11 0c-49-3-100-24-112-84-2-8 4-11 8-12l53-6c6 1 9 5 10 10 5 21 22 32 41 34l4 0c11 0 23-5 30-15 8-11 7-27 7-40l0-8z m-11-113c-6-13-18-22-30-25-2 0-5-1-8-1-21 0-33 16-33 40 0 31 18 45 41 52 12 3 27 4 41 4l0-12c0-22 1-39-11-58z"/>
<glyph glyph-name="anchor" unicode="&#57356;" d="M473 103c-47-64-129-104-217-103-88-1-170 39-217 103l-39-39 0 128 128 0-35-35c28-47 75-80 131-90l0 194c-55 14-96 63-96 123 0 71 57 128 128 128 71 0 128-57 128-128 0-60-41-109-96-123l0-194c56 10 103 43 131 90l-35 35 128 0 0-128z m-153 281c0 35-29 64-64 64-35 0-64-29-64-64 0-35 29-64 64-64 35 0 64 29 64 64z"/>
<glyph glyph-name="apple" unicode="&#57357;" d="M349 499c3-66-30-113-95-118 3 69 39 103 95 118z m43-254c0 41 22 77 54 97-29 31-57 50-105 45-29-3-53-19-79-19-48-1-84 30-131 11-45-17-73-70-77-121-6-88 37-190 85-230 8-7 25-16 35-17 28-6 46 13 76 17 42 6 72-22 108-17 56 7 83 84 102 128-40 18-68 59-68 106z"/>
<glyph glyph-name="appstore" unicode="&#57358;" d="M214 249l38 65c2 5 1 11-4 14l-27 15c-5 3-11 2-14-3l-41-71-45-79-37-65c-3-5-1-11 4-14l26-15c5-3 11-2 14 3l52 91z m251 20l-90 0c11-20 21-39 28-52 4-9 8-16 10-19 1-2 2-5 3-8l49 0c5 0 10 4 10 9l0 60c0 5-5 10-10 10z m-218 0l-45-79 122 0c-9 18-21 43-37 79z m-102 0l-103 0c-6 0-10-5-10-10l0-60c0-5 4-9 10-9l58 0z m-39-185l-27 15c-5 3-9 1-10-5l-5-40c0-6 3-8 8-4l34 23c5 3 4 8 0 11z m290 105c0 1 0 1 0 1-3 5-9 17-17 32 0 0 0 1 0 1-1 1-2 2-2 3-1 1-1 2-2 3 0 1 0 2-1 2-1 2-1 3-2 5 0 0-1 0-1 1-1 1-1 3-2 5 0 0-1 1-1 1-19 35-42 79-57 102-25 40-59 107-69 103-13-7 28-92 42-124 13-32 66-155 77-160 11-5 15-2 22 1 7 3 20 12 13 24z m31-63l-13 24c-3 6-10 8-15 5l-15-7c-6-3-7-10-4-15l16-25c3-6 10-7 16-4l10 6c6 4 8 11 5 16z m-4-35c-4-4-14-12-2-28 11-17 37-17 40-28 0 0 8 82-38 56z"/>
<glyph glyph-name="at" unicode="&#57359;" d="M454 105c-24-25-52-44-85-56-33-11-68-17-104-17-35 0-67 5-96 17-28 11-53 26-73 46-20 19-36 43-47 70-11 28-17 58-17 90 0 33 6 62 18 90 13 27 29 51 50 71 21 20 46 35 74 47 28 11 59 17 91 17 27 0 54-4 80-12 26-8 49-20 69-36 20-16 36-36 48-60 12-24 18-53 18-85 0-24-3-46-10-64-7-19-16-34-27-46-11-13-24-22-38-28-14-7-30-10-45-10-17 0-30 4-39 12-10 7-15 17-15 29l-3 0c-6-10-15-19-28-28-13-8-28-13-46-13-28 0-49 9-64 27-15 18-23 42-23 71 0 17 3 33 9 50 6 16 14 31 24 44 11 13 23 23 38 31 14 8 31 11 49 11 15 0 28-3 39-9 10-7 17-14 20-24l1 0 5 24 54 0-24-113c-1-6-2-12-3-19-2-7-2-13-2-19 0-7 1-13 4-18 2-4 7-7 15-7 16 0 29 9 39 26 11 17 16 39 16 68 0 24-4 45-12 64-8 19-20 34-34 47-14 12-32 22-51 28-20 7-42 10-66 10-25 0-49-4-70-13-21-9-39-22-54-38-15-16-27-34-35-56-9-21-13-44-13-69 0-27 4-51 13-72 9-21 21-39 37-54 16-16 35-27 57-35 21-8 46-12 72-12 33 0 61 5 85 16 24 10 45 25 65 43z m-191 219c-9 0-18-3-25-8-8-6-14-13-19-22-5-8-9-18-11-28-3-11-4-21-4-31 0-4 0-9 1-15 1-5 3-10 6-15 3-5 7-8 12-11 5-3 11-5 20-5 11 0 20 3 28 8 7 6 14 12 18 21 5 8 9 17 11 26 2 10 3 19 3 27 0 6 0 13-1 19-2 6-4 12-7 17-3 5-7 9-12 12-5 3-12 5-20 5z"/>
<glyph glyph-name="atom" unicode="&#57360;" d="M256 0c-48 0-96 112-96 256 0 144 48 256 96 256 48 0 96-112 96-256 0-144-48-256-96-256z m0 32c32 0 64 96 64 224 0 128-32 224-64 224-32 0-64-96-64-224 0-128 32-224 64-224z m-212 85c-28 39 40 140 163 220 122 79 245 102 273 62 27-39-40-140-163-219-123-80-246-102-273-63z m27 18c19-26 119 0 228 71 109 71 172 150 153 176-18 26-118-1-227-71-109-71-172-150-154-176z m409-18c-28-39-151-17-273 63-123 79-191 180-163 219 27 40 150 17 273-62 123-80 190-181 163-220z m-28 18c19 26-44 105-153 176-109 70-209 97-228 71-18-26 45-105 154-176 109-71 209-97 227-71z m-372-7c27 0 48 21 48 48 0 27-21 48-48 48-27 0-48-21-48-48 0-27 21-48 48-48z m320-64c27 0 48 21 48 48 0 27-21 48-48 48-27 0-48-21-48-48 0-27 21-48 48-48z m-96 320c27 0 48 21 48 48 0 27-21 48-48 48-27 0-48-21-48-48 0-27 21-48 48-48z"/>
<glyph glyph-name="attachment" unicode="&#57361;" d="M138-2c-34 0-67 15-90 38-45 45-57 123 6 186 37 37 185 185 259 259 26 26 59 37 91 28 32-8 57-34 66-65 8-32-2-66-28-92l-248-248c-14-14-30-22-46-24-16-1-31 4-41 14-20 20-22 56 10 88l173 174c8 7 19 7 26 0 7-8 7-19 0-26l-174-174c-15-15-16-29-10-36 3-3 7-4 12-3 8 0 17 5 25 13l247 248c17 17 24 37 18 56-5 19-20 35-39 40-20 5-40-2-57-19-73-74-221-222-258-258-49-49-37-104-6-135 31-31 87-43 135 5l259 259c7 7 18 7 26 0 7-7 7-19 0-26l-259-259c-31-30-65-43-97-43z"/>
<glyph glyph-name="backward" unicode="&#57362;" d="M96 416l0-320 79 0 0 142 241-142 0 320-241-142 0 142z"/>
<glyph glyph-name="bar-chart" unicode="&#57363;" d="M384 512l128 0 0-512-128 0z m-192-192l128 0 0-320-128 0z m-192-128l128 0 0-192-128 0z"/>
<glyph glyph-name="bluetooth" unicode="&#57365;" d="M140 368c-16-16-12-17-11-18 2-1 90-86 90-86 0 0 4-3 4-8 0-5-4-8-4-8 0 0-88-85-90-86-1-1-5-3 11-18 16-16 18-13 19-12l68 64c0 1 0 1 0 1 0 0 0 0 0 0 3 2 10 11 10 3 0-7 0-152 0-156l0-2c0-5 5-10 12-10 3 0 6 1 9 3 0 0 118 113 122 118 5 4 5 10 1 14l-83 81c0 0-5 4-5 8 0 4 5 8 5 8l83 81c4 4 4 10-1 14-4 5-122 117-122 117-2 3-6 4-9 4-7 0-12-5-12-10l0-2c0-5 0-149 0-156 0-8-7 1-10 3 0 0 0 0 0 0 0 0 0 0 0 0l-68 65c-1 1-3 4-19-12z m140 24c0 7 8-2 10-4l30-30c2-2 3-4 3-7 0-2-1-5-3-7-1-2-30-30-30-30-3-1-10-9-10-1 0 0 0 72 0 79z m0-193c0 8 7 0 10-2 0 0 29-27 31-29 1-2 2-5 2-7 0-3 0-6-3-8l-30-29c-2-2-10-11-10-4 0 6 0 79 0 79z"/>
<glyph glyph-name="bold" unicode="&#57366;" d="M333 282c20 14 35 37 35 59 0 48-37 86-85 86l-134 0 0-299 151 0c44 0 79 36 79 81 0 32-19 60-46 73z m-120 91l64 0c18 0 32-14 32-32 0-17-14-32-32-32l-64 0z m75-192l-75 0 0 64 75 0c18 0 32-14 32-32 0-17-14-32-32-32z"/>
<glyph glyph-name="book" unicode="&#57367;" d="M431 385l-237 122c-33 17-97-16-115-45-8-13-8-22-8-28l3-276c0-6 8-14 14-18 13-8 213-132 218-136 4-2 7-3 11-3 3 0 6 1 8 2 6 3 10 9 10 15l0 291c0 6-3 11-9 14l-216 121c2 5 12 15 30 24 18 10 32 6 35 5 0 0 208-111 214-115 6-3 6-3 6-9 0-6 0-275 0-275 0-14 14-20 25-20 10 0 21 10 21 20l0 296c0 6-4 12-10 15z"/>
<glyph glyph-name="bookmarks" unicode="&#57368;" d="M343 347l9 6 9-6 23-15 0 116c-21 0-44 0-64 0l0-116z m89 101c0 0-13 0-32 0l0-147-48 32-48-32 0 147c-12 0-21 0-22 0-8 0-18-7-18-15 0-8 0-329 0-329l-8-6-8 6c0 0 0 322 0 329 0 7-9 15-18 15-8 0-150 0-150 0-19 0-33-13-33-32l0-286c0-19 14-34 33-34 0 0 130 0 143 0 14 0 25-4 25-19 0-10 0-13 0-13l16 0c0 0 0 3 0 13 0 15 11 19 25 19 14 0 143 0 143 0 19 0 33 15 33 34l0 286c0 19-14 32-33 32z"/>
<glyph glyph-name="box" unicode="&#57369;" d="M112 112l288 0 0 192-288 0z m112 160l64 0c9 0 16-7 16-16 0-9-7-16-16-16l-64 0c-9 0-16 7-16 16 0 9 7 16 16 16z m-128 128l0-80 320 0 0 80z"/>
<glyph glyph-name="brush" unicode="&#57370;" d="M202 240c-9-11-12-19-25-39 9-6 24-19 35-42 22 13 33 15 44 24 76 64 262 294 256 300-7 7-243-170-310-243z m-47-57c-33 6-65-15-87-67-22-52-60-73-68-72 41-14 164-52 195 91-13 34-40 48-40 48z"/>
<glyph glyph-name="calc" unicode="&#57372;" d="M96 480l0-96 320 0 0 96z m0 32l320 0c17 0 32-14 32-32l0-448c0-18-14-32-32-32l-320 0c-17 0-32 14-32 32l0 448c0 18 14 32 32 32z m32-192l0-64 64 0 0 64z m96 0l0-64 64 0 0 64z m96 0l0-64 64 0 0 64z m-192-96l0-64 64 0 0 64z m96 0l0-64 64 0 0 64z m96 0l0-64 64 0 0 64z m-192-96l0-64 64 0 0 64z m96 0l0-64 64 0 0 64z m96 0l0-64 64 0 0 64z"/>
<glyph glyph-name="calendar" unicode="&#57373;" d="M96 448l0 32c0 18 14 32 32 32 18 0 32-14 32-32l0-32c0-18-14-32-32-32-18 0-32 14-32 32z m224-32c18 0 32 14 32 32l0 32c0 18-14 32-32 32-18 0-32-14-32-32l0-32c0-18 14-32 32-32z m128-352l-448 0 0 384 80 0c0-26 22-48 48-48 26 0 48 22 48 48l96 0c0-26 22-48 48-48 26 0 48 22 48 48l80 0z m-32 288l-384 0 0-256 384 0z m64 64l0-384-448 0 0-32 480 0 0 416z m-320-96l-64 0 0-64 64 0z m96 0l-64 0 0-64 64 0z m96 0l-64 0 0-64 64 0z m-192-96l-64 0 0-64 64 0z m96 0l-64 0 0-64 64 0z m96 0l-64 0 0-64 64 0z"/>
<glyph glyph-name="call" unicode="&#57374;" d="M295 217c-50-51-109-99-132-76-33 33-54 62-127 3-73-59-17-98 15-130 37-37 176-2 312 135 137 136 172 275 135 312-32 32-71 88-130 15-59-73-30-94 3-127 23-23-25-82-76-132z"/>
<glyph glyph-name="camera" unicode="&#57375;" d="M430 365l-67 0-40 41c0 0-1 0-1 0l0 0c-6 6-14 10-23 10l-84 0c-10 0-19-4-25-11l0 0-39-40-69 0c-19 0-34-15-34-33l0-202c0-19 15-34 34-34l348 0c19 0 34 15 34 34l0 202c0 18-15 33-34 33z m-174-219c-51 0-92 42-92 93 0 51 41 93 92 93 51 0 92-42 92-93 0-51-41-93-92-93z m168 165c-8 0-14 7-14 15 0 7 6 14 14 14 8 0 14-7 14-14 0-8-6-15-14-15z m-168-2c-39 0-70-31-70-70 0-39 31-70 70-70 39 0 70 31 70 70 0 39-31 70-70 70z"/>
<glyph glyph-name="card" unicode="&#57376;" d="M452 416l-392 0c-15 0-28-13-28-28l0-264c0-16 13-28 28-28l392 0c16 0 28 13 28 28l0 264c0 15-12 28-28 28z m-375-32l358 0c7 0 12-5 13-12l0-20-384 0 0 20c1 7 6 12 13 12z m358-256l-358 0c-7 0-12 5-13 12l0 116 384 0 0-116c-1-7-6-12-13-12z m-339 80l192 0 0-16-192 0z m0-32l96 0 0-16-96 0z m256 32l64 0 0-48-64 0z"/>
<glyph glyph-name="caret-down" unicode="&#57377;" d="M149 299l107-107 107 107z"/>
<glyph glyph-name="caret-up" unicode="&#57378;" d="M149 213l107 107 107-107z"/>
<glyph glyph-name="carousel" unicode="&#57379;" d="M149 107l214 0 0 320-214 0z m-106 42l85 0 0 235-85 0z m341 235l0-235 85 0 0 235z"/>
<glyph glyph-name="cart" unicode="&#57380;" d="M85 57c0-32 26-57 57-57 32 0 57 25 57 57 0 31-25 57-57 57-31 0-57-26-57-57z m285 0c0-32 25-57 57-57 31 0 57 25 57 57 0 31-26 57-57 57-32 0-57-26-57-57z m-184 134l315 90c6 2 11 9 11 15l0 156-401 0 0 49c0 6-5 11-11 11l-89 0c-6 0-11-5-11-11l0-46 55 0 56-258 6-26 0-43c0-6 5-11 11-11l373 0c6 0 11 5 11 11l0 43-320 0c-33 0-33 12-6 20z"/>
<glyph glyph-name="cc" unicode="&#57382;" d="M253 512c-142-2-255-118-253-259 2-142 118-255 259-253 142 2 255 118 253 259-2 142-118 255-259 253z m6-458c-112-2-204 88-205 199-2 112 88 204 199 205 112 2 204-88 205-199 2-112-88-204-199-205z m-66 159c-10 0-19 4-24 11-6 8-9 19-9 32 0 29 11 43 33 43 5 0 9-1 15-4 5-3 9-8 13-15l32 17c-13 23-35 35-65 35-21 0-38-7-51-20-14-14-21-33-21-56 0-24 7-43 20-56 14-14 32-20 53-20 14 0 27 3 38 10 11 7 20 16 27 28l-30 16c-6-14-16-21-31-21z m142 0c-11 0-19 4-25 11-5 8-8 19-8 32 0 29 11 43 33 43 5 0 9-1 15-4 5-3 9-8 12-15l33 17c-13 23-35 35-65 35-21 0-38-7-51-20-14-14-21-33-21-56 0-24 7-43 20-56 13-14 31-20 53-20 14 0 26 3 38 10 11 7 20 16 27 28l-31 16c-6-14-16-21-30-21z"/>
<glyph glyph-name="chat" unicode="&#57383;" d="M256 63c29 0 56 5 81 15 1 1 1 1 2 1 0 0 0 0 0 0 4 2 8 2 11 2 5 0 9-1 13-2l84-31-23 88c0 6 2 11 4 15 1 1 2 3 3 4 21 31 33 68 33 108 0 111-93 201-208 201-115 0-208-90-208-201 0-111 93-200 208-200z m96 225c18 0 32-14 32-32 0-18-14-32-32-32-18 0-32 14-32 32 0 18 14 32 32 32z m-96 0c18 0 32-14 32-32 0-18-14-32-32-32-18 0-32 14-32 32 0 18 14 32 32 32z m-96 0c18 0 32-14 32-32 0-18-14-32-32-32-18 0-32 14-32 32 0 18 14 32 32 32z"/>
<glyph glyph-name="chatbubble" unicode="&#57384;" d="M256 63c29 0 56 5 81 15 1 1 1 1 2 1 0 0 0 0 0 0 4 2 8 2 11 2 5 0 9-1 13-2l84-31-23 88c0 6 2 11 4 15 1 1 2 3 3 4 21 31 33 68 33 108 0 111-93 201-208 201-115 0-208-90-208-201 0-111 93-200 208-200z"/>
<glyph glyph-name="check" unicode="&#57385;" d="M462 402l-55 44c-2 1-4 2-6 2-3 0-5-1-7-2l-199-257c0 0-79 75-81 78-2 2-5 6-10 6-4 0-6-4-8-6-2-2-30-31-44-46-1-1-1-1-2-2-1-1-2-3-2-5 0-3 1-4 2-6l3-3c0 0 139-134 142-136 2-2 5-5 9-5 4 0 7 4 9 6l249 320c1 2 2 4 2 6 0 2-1 5-2 6z"/>
<glyph glyph-name="check-all" unicode="&#57386;" d="M384 363l-30 30-135-136 30-30z m91 30l-226-226-89 89-31-30 120-119 256 256z m-466-167l119-119 30 30-119 119z"/>
<glyph glyph-name="chrome" unicode="&#57387;" d="M346 255c0-50-41-91-91-91-50 0-91 41-91 91 0 50 41 91 91 91 50 0 91-41 91-91z m-92 109l0 0 221 0c-40 80-124 136-220 136-78 0-147-36-192-93l84-144c4 56 50 100 107 101z m1-218c-47 0-87 30-102 72l-102 173c-26-39-41-85-41-136 0-123 91-225 210-242l84 145c-15-7-31-12-49-12z m227 200l-168 0c30-19 50-53 50-91 0-19-5-36-14-52l0 0-111-192c5-1 11-1 16-1 135 0 245 110 245 245 0 32-6 63-18 91z"/>
<glyph glyph-name="clear" unicode="&#57388;" d="M70 405l-27-27 148-149-52-122 64 0 33 78 121-121 27 27-308 308z m58 0l0-4 60-60 51 0-15-35 45-45 34 80 124 0 0 64z"/>
<glyph glyph-name="clipboard" unicode="&#57389;" d="M350 427c0-13-11-23-24-23l-140 0c-13 0-24 10-24 23l0 38-41 0c0 0-51 0-51-50 0-147 0-364 0-364 0-51 51-51 51-51l270 0c0 0 51 0 51 51l0 364c0 50-51 50-51 50l-41 0z m-94 85c-47 0-47-47-47-47 0 0-23-1-23-23 0-23 23-23 23-23l94 0c0 0 23-2 23 23 0 24-23 23-23 23 0 0 0 47-47 47z m23-47c0 13-10 24-23 24-13 0-23-11-23-24 0-12 10-23 23-23 13 0 23 11 23 23z"/>
<glyph glyph-name="cloud" unicode="&#57390;" d="M398 279c0 1 0 2 0 3 0 65-51 118-115 118-46 0-86-27-105-67-8 4-17 6-26 6-30 0-55-21-59-50-36-12-61-46-61-86 0-50 40-91 90-91l276 0c45 0 82 37 82 83 0 46-37 84-82 84z"/>
<glyph glyph-name="command" unicode="&#57391;" d="M405 213l-40 0c0 0-1 0-2 0l0 86 42 0c59 0 107 47 107 106 0 59-48 107-107 107-59 0-106-48-106-107l0-40c0 0 0-1 0-2l-86 0 0 42c0 59-47 107-106 107-59 0-107-48-107-107 0-59 48-106 107-106l40 0c0 0 1 0 2 0l0-86-42 0c-59 0-107-47-107-106 0-59 48-107 107-107 59 0 106 48 106 107l0 40c0 0 0 1 0 2l86 0 0-42c0-59 47-107 106-107 59 0 107 48 107 107 0 59-48 106-107 106z m-42 192c0 24 19 43 42 43 24 0 43-19 43-43 0-23-19-42-43-42-11 0-42 0-42 0 0 0 0 30 0 42z m-214-298c0-24-19-43-42-43-24 0-43 19-43 43 0 23 19 42 43 42 11 0 42 0 42 0 0 0 0-30 0-42z m0 256c0 0-30 0-42 0-24 0-43 19-43 42 0 24 19 43 43 43 23 0 42-19 42-43 0-11 0-42 0-42z m150-150l-86 0 0 86 86 0z m106-149c-23 0-42 19-42 43 0 11 0 42 0 42 0 0 30 0 42 0 24 0 43-19 43-42 0-24-19-43-43-43z"/>
<glyph glyph-name="compose" unicode="&#57392;" d="M443 412l-31 31c-7 7-18 7-25 0l-31-32 55-56 32 32c7 7 7 18 0 25z m-97-11l-172-177-14-64 64 14 177 173z m38-145l0-150c0-5-4-10-9-10-5 0-269 0-269 0-6 0-10 5-10 10 0 5 0 268 0 268 0 5 5 10 11 10l149 0 32 32-201 0c-13 0-23-10-23-23l0-306c0-13 11-23 23-23l306 0c13 0 23 10 23 23l0 201z"/>
<glyph glyph-name="controller-a" unicode="&#57394;" d="M32 257c0-66 50-113 111-113l226 0c62 0 111 47 111 113 0 65-49 111-111 111l-226 0c-61 0-111-46-111-111z m373 22c11 0 19-9 19-19 0-11-8-19-19-19-11 0-20 8-20 19 0 10 9 19 20 19z m-43 41c11 0 20-8 20-19 0-10-9-19-20-19-10 0-19 9-19 19 0 11 9 19 19 19z m0-83c11 0 20-8 20-19 0-10-9-19-20-19-10 0-19 9-19 19 0 11 9 19 19 19z m-42 42c11 0 19-9 19-19 0-11-8-19-19-19-11 0-20 8-20 19 0 10 9 19 20 19z m-232-12c0 2 2 5 4 5l36 0 0 39c0 3 2 5 5 5l22 0c2 0 5-2 5-5l0-39 38 0c3 0 5-3 5-5l0-22c0-3-2-5-5-5l-38 0 0-39c0-3-3-5-5-5l-22 0c-3 0-5 2-5 4l0 40-35 0c-3 0-5 2-5 5z"/>
<glyph glyph-name="controller-b" unicode="&#57395;" d="M378 412c-45 13-59-12-122-12-63 0-77 25-122 12-45-13-67-61-88-149-21-88-18-152 7-164 25-12 54 15 81 49 21 26 32 28 122 28 90 0 99-1 123-28 26-34 55-61 80-49 25 12 29 76 7 164-21 88-43 135-88 149z m-250-164c-21 0-39 18-39 40 0 22 18 39 39 39 22 0 40-17 40-39 0-22-18-40-40-40z m182 20c-11 0-20 9-20 20 0 10 9 19 20 19 10 0 19-9 19-19 0-11-9-20-19-20z m42-42c-11 0-19 9-19 19 0 11 8 20 19 20 11 0 19-9 19-20 0-10-8-19-19-19z m0 85c-11 0-19 9-19 19 0 11 8 20 19 20 11 0 19-9 19-20 0-10-8-19-19-19z m42-43c-10 0-19 9-19 20 0 10 9 19 19 19 11 0 20-9 20-19 0-11-9-20-20-20z"/>
<glyph glyph-name="copy" unicode="&#57396;" d="M51 442c-2 0-4-2-4-5l0-432c0-3 2-5 4-5l340 0c2 0 5 2 5 5l0 432c0 3-3 5-5 5z m65 23l303 0 0-395 46 0 0 442-349 0z"/>
<glyph glyph-name="cover" unicode="&#57397;" d="M430 42l0 457c0 7-6 13-13 13l-296 0c0 0 0 0 0 0-1 0-1 0-1 0-3-1-6-2-8-4l-27-27c-3-2-4-6-4-9l0-456c0-8 6-14 13-14l296 0c7 0 13 6 13 14l0 456c0 7-6 13-13 13l0 0-282 0 13 14 14 0 269 0c7 0 13-6 13-13l1 0 0-457c6 0 12 6 12 13"/>
<glyph glyph-name="coverflow" unicode="&#57398;" d="M128 352l0-224-32 0 0 224z m32 0l224 0 0-224-224 0z m256 0l32 0 0-224-32 0z m64 32l0-288 32 0 0 288z m-448 0l0-288 32 0 0 288z"/>
<glyph glyph-name="cup" unicode="&#57399;" d="M96 343l0-127c-6-7-13-10-20-10-21 0-39 33-39 73 0 41 18 74 39 74 7 0 14-4 20-10m318 41l0 0 0 67-318 0 0-56 0 0 0-9c-6 2-13 3-19 3-44 0-79-47-79-106 0-58 35-105 79-105 6 0 12 1 19 3l0-41 0 0c0 0 0 0 0 0 0-10 8-19 18-19 0 0 0 0 1 0l0 0 278 0 0 0c1 0 1 0 1 0 10 0 19 9 19 19 0 0 0 0 0 0l1 0z m99-302c0 10-9 19-20 19l-475 0c-11 0-20-9-20-19 0-11 9-20 20-20l475 0c11 0 20 9 20 20"/>
<glyph glyph-name="cupful" unicode="&#57400;" d="M294 498l0 0c-138 0-225-48-219-86 2-11 6-40 12-78-67-26-90-69-87-103 4-42 41-86 122-93 46-5 102 21 138 64-3 6-5 13-5 20 0 22 18 40 39 40 22 0 40-18 40-40 0-21-18-39-39-39-43-56-108-89-170-85 1-9 2-13 2-17 3-17 66-67 167-67l0 0c101 0 165 50 167 67 3 16 46 292 52 331 6 38-81 86-219 86z m-255-264c-1 18 13 42 55 60 6-38 12-79 18-115-45 9-71 33-73 55z m255 120c-101 0-172 37-172 51 0 14 71 52 172 52 101 0 173-38 173-52 0-14-72-51-173-51z"/>
<glyph glyph-name="dashboard" unicode="&#57401;" d="M448 208c0 106-86 192-192 192-106 0-192-86-192-192 0-28 6-54 17-78-11-5-20-9-29-14-13 28-20 59-20 92 0 124 100 224 224 224 124 0 224-100 224-224 0-33-7-64-20-92-9 5-18 9-29 14 11 24 17 50 17 78z m-208 176l0-64 32 0 0 64z m107-24l-38-52 26-19 38 52z m72-83l-61-19 10-31 61 20z m10-109l-61 20-10-30 61-20z m-336-30l61 20-10 30-61-20z m-10 109l61-20 10 31-61 19z m56 94l26 19 38-52-26-19z m117-261c-27 0-48 21-48 48 0 18 10 35 26 43l22 133 22-133c16-8 26-25 26-43 0-27-21-48-48-48z"/>
<glyph glyph-name="db" unicode="&#57402;" d="M452 173c-25-39-103-68-196-68-93 0-171 29-196 68-5 9-8 4-8 0 0-4 0-58 0-58 0-57 92-115 204-115 112 0 204 58 204 115 0 0 0 54 0 58 0 4-3 9-8 0z m0 149c-24-35-103-61-196-61-93 0-172 26-196 61-5 7-8 3-8 0 0-3 0-68 0-68 0-52 92-93 204-93 112 0 204 41 204 93 0 0 0 65 0 68 0 3-3 7-8 0z m-196 190c-112 0-204-34-204-77l0-36c0-45 92-81 204-81 112 0 204 36 204 81l0 36c0 43-92 77-204 77z"/>
<glyph glyph-name="delete" unicode="&#57403;" d="M444 125l-132 132 132 130c5 5 5 14 0 19l-37 38c-3 2-7 4-10 4-4 0-7-2-10-4l-131-130-131 130c-3 2-6 4-10 4-4 0-7-2-10-4l-37-38c-5-5-5-14 0-20l132-130-132-131c-2-3-4-6-4-10 0-4 2-7 4-10l38-37c3-3 6-4 10-4 3 0 7 1 9 4l131 131 131-131c2-3 6-4 10-4 3 0 7 1 9 4l38 37c2 3 4 6 4 10 0 4-2 7-4 10z"/>
<glyph glyph-name="delicious" unicode="&#57404;" d="M467 466l-424 0c-5 0-10-4-10-9l0-424c0-6 5-10 10-10l424 0c5 0 9 4 9 10l0 424c0 5-4 9-9 9z m-212-424l0 203-203 0 0 202 203 0 0-202 202 0 0-203z"/>
<glyph glyph-name="deny" unicode="&#57405;" d="M256 513c-141 0-256-115-256-256 0-141 115-256 256-256 142 0 256 115 256 256 0 141-114 256-256 256z m174-308l-347 0 0 104 347 0z"/>
<glyph glyph-name="design" unicode="&#57406;" d="M403 340c1 0 1 1 2 1l22 22c13 13 15 32 4 43l-33 33c-11 11-30 9-43-4l-22-22c0-1-1-1-1-2z m-303-232l35-35-94-24 23 94z m240 271l-232-232-10 10 232 232-10 11-245-245 72-72 244 245z m122-326c-39 0-44 10-57 49-23 61-128-16-63-43 65-27 159-6 120-6z m-130 106l-36 52-36-36 39-43c20-24 15-23 34-8 19 15 19 11-1 35z m-113 161l-86 122c-20 25-51 32-70 17-19-15-18-47 2-72l106-115z m-105 105c0 0-3 15-30 31 0 0 28 4 43-20-10-7-13-11-13-11z"/>
<glyph glyph-name="devices" unicode="&#57407;" d="M349 512l-279 0c-26 0-47-21-47-47l0-325 47 0 0 325 279 0z m70-93l-256 0c-26 0-47-21-47-47l0-325c0-26 21-47 47-47l256 0c26 0 46 21 46 47l0 325c0 26-20 47-46 47z m0-372l-256 0 0 325 256 0z"/>
<glyph glyph-name="dialpad" unicode="&#57408;" d="M256 107c-24 0-43-19-43-43 0-24 19-43 43-43 24 0 43 19 43 43 0 24-19 43-43 43z m-128 384c-24 0-43-19-43-43 0-24 19-43 43-43 24 0 43 19 43 43 0 24-19 43-43 43z m0-128c-24 0-43-19-43-43 0-24 19-43 43-43 24 0 43 19 43 43 0 24-19 43-43 43z m0-128c-24 0-43-19-43-43 0-24 19-43 43-43 24 0 43 19 43 43 0 24-19 43-43 43z m256 170c24 0 43 19 43 43 0 24-19 43-43 43-24 0-43-19-43-43 0-24 19-43 43-43z m-128-170c-24 0-43-19-43-43 0-24 19-43 43-43 24 0 43 19 43 43 0 24-19 43-43 43z m128 0c-24 0-43-19-43-43 0-24 19-43 43-43 24 0 43 19 43 43 0 24-19 43-43 43z m0 128c-24 0-43-19-43-43 0-24 19-43 43-43 24 0 43 19 43 43 0 24-19 43-43 43z m-128 0c-24 0-43-19-43-43 0-24 19-43 43-43 24 0 43 19 43 43 0 24-19 43-43 43z m0 128c-24 0-43-19-43-43 0-24 19-43 43-43 24 0 43 19 43 43 0 24-19 43-43 43z"/>
<glyph glyph-name="digg" unicode="&#57409;" d="M103 384l0-59-67 0 0-135 110 0 0 194z m0-158l-23 0 0 62 23 0 0-62z m134 99l0-135 66 0 0-21-67 0 0-38 111 0 0 194z m66-98l-22 0 0 61 22 0z m67 98l0-135 67 0 0-21-68 0 0-38 111 0 0 194z m67-98l-23 0 0 61 23 0 0-61z m-269 98l45 0 0-135-45 0z m0 57l45 0 0-37-45 0z"/>
<glyph glyph-name="disc" unicode="&#57410;" d="M256 469c-118 0-213-95-213-213 0-118 95-213 213-213 118 0 213 95 213 213 0 118-95 213-213 213z m0-309c-53 0-96 43-96 96 0 53 43 96 96 96 53 0 96-43 96-96 0-53-43-96-96-96z m0 117c-12 0-21 10-21-21 0-31 9-21 21-21 12 0 21 9 21 21 0 12-9 21-21 21z"/>
<glyph glyph-name="discussion" unicode="&#57411;" d="M160 256l0 96-96 0c-32 0-32-32-32-32 0 0 0-129 0-160 0-31 32-32 32-32l32 0 0-96 97 96 96 0c0 0 31 2 31 32l0 32c0 0-32 0-96 0-64 0-64 64-64 64z m288 192c0 0-192 0-224 0-32 0-32-32-32-32 0 0 0-130 0-160 0-30 31-32 31-32l96 0 97-96 0 96 32 0c0 0 32 1 32 32l0 160c0 32-32 32-32 32z"/>
<glyph glyph-name="diskette" unicode="&#57412;" d="M422 512l-358 0c-35 0-64-29-64-64l0-384c0-35 29-64 64-64l384 0c35 0 64 29 64 64l0 348z m-38-192c0-18-14-32-32-32l-192 0c-18 0-32 14-32 32l0 160 256 0z m-32 128l-64 0 0-128 64 0z"/>
<glyph glyph-name="document" unicode="&#57413;" d="M64 480l256 0 0-160 128 0 0-320-384 0z m289 0l97-129-97 0z"/>
<glyph glyph-name="go-down" unicode="&#57414;" d="M64 320l192-192 192 192z"/>
<glyph glyph-name="download" unicode="&#57415;" d="M405 320l-85 0 0 128-128 0 0-128-85 0 149-149z m-298-192l0-43 298 0 0 43z"/>
<glyph glyph-name="dribbble" unicode="&#57416;" d="M264 243c2 1 4 2 6 2-4 8-8 16-12 23-70-21-138-19-140-19 0-2 0-3 0-5 0-35 13-67 35-91 0 0 0 0 0 0 0 0 37 67 111 90z m-17 46c-24 43-49 77-51 79-38-18-67-53-76-95 4 0 61-1 127 16z m98 58c-24 22-56 35-90 35-12 0-22-2-33-4 2-3 28-37 52-80 51 19 71 49 71 49z m-123 31c0 0 0 0-1-1 1 1 1 1 1 1z m-52-242l0 0c-1 1-2 2-3 3 2-2 3-3 3-3z m114 141c3-6 6-13 9-20 1-2 2-4 3-7 47 6 94-4 96-4-1 32-12 62-31 86-1-1-23-33-77-55z m-6-55c-81-28-107-85-108-86 24-18 53-29 85-29 19 0 37 4 53 11-2 12-10 54-29 104 0 0-1 0-1 0z m-23 244c-123 0-222-99-222-222 0-122 99-221 222-221 122 0 221 99 221 221 0 123-99 222-221 222z m148-284c-4-10-9-19-15-27-6-9-13-17-20-24-7-7-15-14-24-20-8-5-17-10-27-14-10-5-20-8-30-10-11-2-22-3-32-3-11 0-22 1-33 3-10 2-20 5-30 10-9 4-19 9-27 14-9 6-17 13-24 20-7 7-14 15-20 24-5 8-10 17-14 27-4 10-8 20-10 30-2 11-3 22-3 32 0 11 1 22 3 33 2 10 6 20 10 30 4 10 9 19 14 27 6 9 13 17 20 24 7 7 15 14 24 20 8 5 18 10 27 14 10 5 20 8 30 10 11 2 22 3 33 3 10 0 21-1 32-3 10-2 20-5 30-10 10-4 19-9 27-14 9-6 17-13 24-20 7-7 14-15 20-24 6-8 11-17 15-27 4-10 7-20 9-30 2-11 3-22 3-33 0-10-1-21-3-32-2-10-5-20-9-30z m-98 47c18-50 25-90 26-98 31 21 53 54 59 92-3 1-41 13-85 6z"/>
<glyph glyph-name="drink" unicode="&#57417;" d="M230 16l0 299c1 1 1 2 1 3 0 19-8 35-20 44l0 0c-11 8-19 21-19 36 0 1 0 3 1 4l0 0 0 78-1 0 0 0c1 1 2 2 2 3 0 0 0 0 0 0l0 0 0 5 0 0c0 1-1 3-2 4l0 10 0 0c0 0 0 0 0 0 0 2-2 4-5 4 0 0 0 0 0 0l0 0-35 0 0 0c0 0 0 0 0 0-3 0-5-2-5-4 0 0 0 0 0 0l0 0 0-10c-1-1-2-3-2-4l0 0 0-5 0 0c0 0 0 0 0 0 0-1 1-3 2-3l0-78 0 0c0-1 0-3 0-4 0-14-7-27-17-35-13-9-21-26-21-45 0-1 0-2 0-4l0-297c0-1 0-1 0-2 0-4 4-8 9-8l104 0c5 0 9 3 9 8 0 1 0 1-1 1m172 213c0 9-1 19-3 28l-128 0c-2-9-3-19-3-28 0-46 26-83 60-87l0-122-40 0c-4 0-7-3-7-7 0-3 3-6 7-6l94 0c4 0 7 3 7 6 0 4-3 7-7 7l-40 0 0 122c34 4 60 41 60 87"/>
<glyph glyph-name="dropbox" unicode="&#57418;" d="M177 435l-113-74 78-63 114 71z m-113-199l113-74 79 66-114 70z m192-8l79-66 113 74-78 62z m192 133l-113 74-79-66 114-71z m-192-147l-80-66-34 22 0-25 114-68 114 68 0 25-34-22z"/>
<glyph glyph-name="ebay" unicode="&#57419;" d="M278 277c-4 3-10 5-19 5-12 0-21-3-28-13l0 0 0 59-35 0 0-49c1 0 1 0 2-1 13-5 21-12 25-21 4-9 4-19 3-30l0 0c0-2-2-3-4-3l-26 0 0-4 25 0 0 0 0 0c3 0 4-2 4-4 0-6-3-12-7-17-5-4-11-8-18-12-1 0-2-1-3-1l-1 0 0-19 33 0 0 12 1 0c6-11 15-14 29-14 26 0 32 20 34 40l-1 0 0 0 0 0c-12 2-19 9-23 19-1 2-2 4-2 5-2 5-2 10-2 15l0 0 0 0c0 8 1 15 3 20 3 6 6 10 10 13z m-19-52c0-29-2-41-14-41-12 0-14 12-14 41 0 22 0 37 14 37 15 0 14-15 14-37z m-38-9l-64 0c0-8-4-18-27-18-27 0-28 18-28 30l120 0c2 20-1 37-26 47-5 2-11 4-18 5-12 2-28 4-48 4-82 0-91-24-91-51 0-31 10-53 91-53 19 0 35 2 48 5 7 1 13 3 18 5 1 0 1 0 1 1 16 6 24 14 24 25z m-91 51c31 0 29-14 29-24l-57 0c0 9 0 24 28 24z m151 7c-8-5-12-15-12-30 0-17 6-31 24-35 2-1 5-1 8-1 15 0 25 6 32 17l1 0 2-15 32 0c-1 7-2 15-2 22l0 21-3 7-35 63-1 3c-3 0-7 0-11 0-13 0-24-2-32-8-8-4-13-13-13-27l34 0c0 9 1 17 13 17 13 0 14-7 14-16l0-9c-19 0-38 0-51-9z m34-46c-11 0-13 10-13 18 0 20 13 18 30 19 0-12 4-37-17-37z m125 112l-35-68-32 68-49 0 8-15 34-64 14-26 0-55 45 0 0 55 61 105z"/>
<glyph glyph-name="eject" unicode="&#57420;" d="M399 192c10 0 17 7 17 16 0 3-1 6-3 9l-138 190c-4 6-11 9-19 9-8 0-15-3-19-9l-138-191c-2-2-3-5-3-8 0-9 7-16 17-16z m5-32l-296 0c-6 0-12-5-12-12l0-40c0-7 6-12 12-12l296 0c7 0 12 5 12 12l0 40c0 7-5 12-12 12z"/>
<glyph glyph-name="equalizer" unicode="&#57421;" d="M213 85l86 0 0 342-86 0z m-128 0l86 0 0 171-86 0z m256 235l0-235 86 0 0 235z"/>
<glyph glyph-name="excel" unicode="&#57422;" d="M10 450l0-380 281-50 0 480z m161-270l-23 62-23-59-32 0 37 82-35 80 33 0 22-56 25 60 32 2-40-86 41-88z m318 271l-189 0 0-28 71 0 0-50-71 0 0-15 71 0 0-50-71 0 0-15 71 0 0-51-71 0 0-15 71 0 0-50-71 0 0-15 71 0 0-50-71 0 0-33 189 0c6 0 10 5 10 11l0 351c0 5-4 10-10 10z m-23-339l-80 0 0 50 80 0z m0 65l-80 0 0 50 80 0z m0 65l-80 0 0 51 80 0z m0 66l-80 0 0 50 80 0z m0 65l-80 0 0 50 80 0z"/>
<glyph glyph-name="facebook" unicode="&#57423;" d="M33 70c0-21 16-37 37-37l372 0c21 0 37 16 37 37l0 372c0 21-16 37-37 37l-372 0c-21 0-37-16-37-37l0-372z m232 19l0 148-37 0 0 56 37 0c0 96 4 103 121 103l0-56c-61 0-56-4-56-47l56 0 0-56-56 0 0-148z"/>
<glyph glyph-name="fastforward" unicode="&#57424;" d="M256 384l0-123-224 123 0-256 224 123 0-123 224 128z"/>
<glyph glyph-name="feather" unicode="&#57425;" d="M288 259c37 36 65 49 130 34 8 7 15 13 21 19 74 74 65 152 73 200-48-8-214-1-288-75-66-66-129-239-144-309l-80-128 48 0 64 112c57 15 181 73 260 140-14 8-67 13-84 7z m-163-100c29 44 123 224 307 306-21-23-260-244-307-306-5-7-7-10-7-10 1 2 4 6 7 10z"/>
<glyph glyph-name="filed" unicode="&#57426;" d="M381 383l-249 0c-12 0-19 0-19-20l0-28 288 0 0 28c0 20-8 20-20 20z m-48 32l-153 0c-13 0-19 0-19-18l192 0c-1 18-7 18-20 18z m99-73l-15 10 0-33-321 0 0 33-16-10c-14-9-17-15-15-41l18-184c4-21 16-22 24-22l300 0c8 0 20 1 24 22l17 184c2 24-2 33-16 41z"/>
<glyph glyph-name="film" unicode="&#57427;" d="M64 448l32 0 0-35-32 0z m320 0l-256 0 0-177 256 0z m0-206l-256 0 0-178 256 0z m-320 136l32 0 0-35-32 0z m0-70l32 0 0-35-32 0z m0-70l32 0 0-34-32 0z m0-69l32 0 0-35-32 0z m0-70l32 0 0-35-32 0z m352 349l32 0 0-35-32 0z m0-70l32 0 0-35-32 0z m0-70l32 0 0-35-32 0z m0-70l32 0 0-34-32 0z m0-69l32 0 0-35-32 0z m0-70l32 0 0-35-32 0z"/>
<glyph glyph-name="firefox" unicode="&#57428;" d="M418 434c-1 2-3 3-4 4 1-1 3-2 4-4z m-396-131c0 0 0-1-1-2 0-1-1-2-1-2 1 1 2 3 2 4z m69 111c0 0 1 1 1 1 21 21 45 37 72 49 28 11 57 17 87 17 29 0 57-5 83-16 16-2 36-7 53-17-38 27-85 43-136 43-65 0-125-27-167-70 2-3 4-5 7-7z m83-177c-1 2-3 3-4 5 0-4 0-7 0-11 0-7 0-15 3-22 2-8 6-16 12-22 5-5 10-10 16-14l0 0c12 0 31 0 41 3 15 5 39 24 39 24 6 6 13 3 19 3 6 0 8 9 0 18-8 9-36 18-57 4-21-14-51-3-69 12z m15 132c-1-5-3-11-3-18 0-7 2-14 5-22 2-6 5-10 7-13 2-3 3-5 5-7 2 3 6 5 8 7 6 4 29 15 32 18 3 3 9 19 4 24-5 5-37 2-47 4-4 1-8 4-11 7z m6-98c0 0 0 0 0 0 0 0 1 0 1 0z m296 45c0-8-7-19-8-21 0 0 0 3 0 10 0 11 3 39-11 70-14 31-35 46-35 46l0-7c-3 10-31 29-31 29l0-10c50-46 55-78 55-78-9 29-35 51-57 72-22 21-68 32-68 32 49-28 73-72 73-72-25 24-45 22-45 22 15-11 22-23 36-45 14-22 13-74 13-74-7 17-21 24-21 24 0 0 3-30 5-47 2-17-7-49-7-49 0 12-7 15-7 15 0 0 2-7-8-39-10-32-29-43-32-42-3 1 0 6 0 6 0 0-5 4-12-7-5-9-16-14-19-15 4 1 4 8 4 8 0 0-7-4-39-9-32-5-47 9-47 9 3 3 17 0 17 0 0 3-16 8-32 10-13 2-19 8-22 13-6 4-11 8-15 13-5 5-9 11-11 17-6 11-7 23-7 34 0 10 1 18 3 25 1 6 3 10 3 10l0 0c2 6 6 10 10 12-1 1-3 2-4 3-7 3-14 5-21 4-8-2-15-5-21-10-6-4-11-11-14-18-3-7-4-15-4-23 0-8 1-16 4-24 3-7 7-14 12-21 5-6 11-12 17-17-6 5-12 10-18 17-5 6-10 13-14 20-3 8-5 16-6 25 0 8 1 17 4 25 3 8 8 16 15 21 3 3 7 6 11 8 3 2 8 3 12 4 5 1 9 1 14 1 4-1 9-2 13-4 4-2 8-5 11-7 2-2 3-3 5-5 1-1 2-1 2-2 1-1 1-2 2-2 4 9 1 24 1 28-2 2-5 6-8 10-2 4-5 9-7 14-4 9-6 18-6 26 0 9 2 18 4 24 1 1 1 3 2 4 5 25 32 49 32 49-38 5-64-30-64-30 0 0 0 0 0 0-3-3-12-13-13-22 0 0 1 16 5 26-15 5-32 2-41 1l0-1c-9-1-17-5-24-9-7-4-14-10-19-15-10-10-16-19-16-19l0 0-1 0c-18-27-30-84-30-84 2 9 11 20 11 20-10-15-8-84-8-84 0 11 6 24 6 24 2-23 12-97 77-153 65-56 120-61 120-61-13 4-16 10-16 10 42-17 68-14 68-14-7 4-8 7-8 7 45-2 105 14 119 24 14 10 26 30 26 30 36 17 61 52 68 70 7 18 0 37 0 37 0 0 0 1 17 39 17 38 0 92 0 92z m-419 85c4 3 8 5 13 7-19 16-18 37-18 37-19-18-24-50-25-69 1 1 1 1 1 1 7 8 16 17 29 24z"/>
<glyph glyph-name="flag" unicode="&#57429;" d="M100 18l0 459 22 0c1-2 0-459 0-459z m45 442c24-11 55-7 96 17 64 38 112 39 150 23 8-3 14-7 17-10l4-3 0-204-18 15c-2 2-5 4-11 7-32 13-72 13-131-22-40-24-78-25-106-18z"/>
<glyph glyph-name="flame" unicode="&#57430;" d="M217 489c52-141-64-146-128-235-44-63-52-200 109-236-68 35-82 138-9 203-19-63 15-103 59-88 43 14 70-16 70-51-1-24-8-43-35-56 0 0 147 28 147 171 0 87-78 99-39 172-46-4-63-34-58-85 3-33-31-55-57-40-21 12-20 37-2 54 38 39 54 126-57 191z"/>
<glyph glyph-name="flickr" unicode="&#57431;" d="M230 257c0-53-43-97-97-97-53 0-97 44-97 97 0 54 44 97 97 97 54 0 97-43 97-97z m243 0c0-53-43-97-97-97-53 0-97 44-97 97 0 54 44 97 97 97 54 0 97-43 97-97z"/>
<glyph glyph-name="flip" unicode="&#57432;" d="M320 64l43 0 0 43-43 0z m85 256l43 0 0 43-43 0z m-341 85l0-298c0-24 19-43 43-43l85 0 0 43-85 0 0 298 85 0 0 43-85 0c-24 0-43-19-43-43z m341 43l0-43 43 0c0 24-19 43-43 43z m-170-427l42 0 0 470-42 0z m170 128l43 0 0 43-43 0z m-85 256l43 0 0 43-43 0z m85-170l43 0 0 42-43 0z m0-171c24 0 43 19 43 43l-43 0z"/>
<glyph glyph-name="flock" unicode="&#57433;" d="M389 180c14 44-6 89-44 101-39 13-81-13-95-57-14-44 6-89 45-101 38-12 81 13 94 57z m-212 265c-6 18-37 25-70 14-32-10-53-34-47-52 6-19 37-26 69-15 33 11 54 34 48 53z m234-8c1 17-18 33-42 35-25 2-46-11-47-28-1-18 18-33 42-35 25-2 46 11 47 28z m-108-4c0 19-23 34-50 34-28 0-50-15-50-34 0-19 22-34 50-34 27 0 50 15 50 34z m99-82c0 27-24 49-54 49-30 0-54-22-54-49 0-26 24-48 54-48 30 0 54 22 54 48z m-154 49c0 0 53 2 46-49l54 49c0 0-50 0-45 38z m-84 72c28 12 59 18 91 18 27 0 54-5 79-14 5 2 10 4 16 5-29 12-61 19-95 19-41 0-79-10-113-28 7 0 13 0 19-2 1 1 2 1 3 2z m261-40c-1-4-3-7-4-10 0 0 0-1 0-1 22-21 39-47 51-75 12-28 18-59 18-91 0-32-6-63-18-91-12-28-29-54-51-75-21-22-47-39-75-51-28-12-59-18-91-18-32 0-63 6-91 18-28 12-54 29-75 51-22 21-39 47-51 75-12 28-18 59-18 91 0 32 6 63 18 91 7 15 14 29 23 41-3 2-6 4-8 7-27-40-43-87-43-139 0-135 110-245 245-245 135 0 245 110 245 245 0 69-29 132-75 177z"/>
<glyph glyph-name="flow-cross" unicode="&#57434;" d="M171 167l0 14c0 18 11 34 27 44-14 6-27 14-39 24-19-17-31-41-31-68l0-14c-25-9-43-33-43-60 0-36 29-64 64-64 36 0 64 28 64 64 0 27-18 51-42 60z m-22-82c-11 0-21 10-21 22 0 11 10 21 21 21 12 0 22-10 22-21 0-12-10-22-22-22z m192 260l0-7c0-21-11-40-28-51 14-5 27-13 39-23 20 19 32 45 32 74l0 7c25 9 43 33 43 60 0 36-29 64-64 64-36 0-64-28-64-64 0-27 18-51 42-60z m22 82c11 0 21-10 21-22 0-11-10-21-21-21-12 0-22 10-22 21 0 12 10 22 22 22z m20-260c-9 62-62 110-127 110-41 0-76 30-84 69 24 9 41 32 41 59 0 36-28 64-64 64-35 0-64-28-64-64 0-28 19-52 44-60 9-62 62-110 127-110 41 0 76-30 84-69-24-9-41-32-41-59 0-36 28-64 64-64 35 0 64 28 64 64 0 28-19 52-44 60z m-234 260c12 0 22-10 22-22 0-11-10-21-22-21-11 0-21 10-21 21 0 12 10 22 21 22z m214-342c-12 0-22 10-22 22 0 11 10 21 22 21 11 0 21-10 21-21 0-12-10-22-21-22z"/>
<glyph glyph-name="flow-double" unicode="&#57435;" d="M384 167l0 39c0 41-33 75-75 75-17 0-32 14-32 32l0 32c25 9 43 33 43 60 0 36-29 64-64 64-35 0-64-28-64-64 0-27 18-51 43-60l0-32c0-18-15-32-32-32-42 0-75-34-75-75l0-39c-25-9-43-33-43-60 0-36 29-64 64-64 36 0 64 28 64 64 0 27-18 51-42 60l0 39c0 18 14 32 32 32 21 0 39 9 53 23 14-14 32-23 53-23 18 0 32-14 32-32l0-39c-24-9-42-33-42-60 0-36 28-64 64-64 35 0 64 28 64 64 0 27-18 51-43 60z m-235-82c-11 0-21 10-21 22 0 11 10 21 21 21 12 0 22-10 22-21 0-12-10-22-22-22z m107 342c12 0 21-10 21-22 0-11-9-21-21-21-12 0-21 10-21 21 0 12 9 22 21 22z m107-342c-12 0-22 10-22 22 0 11 10 21 22 21 11 0 21-10 21-21 0-12-10-22-21-22z"/>
<glyph glyph-name="flow-parallel" unicode="&#57436;" d="M384 167l0 178c25 9 43 33 43 60 0 36-29 64-64 64-36 0-64-28-64-64 0-27 18-51 42-60l0-178c-24-9-42-33-42-60 0-36 28-64 64-64 35 0 64 28 64 64 0 27-18 51-43 60z m-21 260c11 0 21-10 21-22 0-11-10-21-21-21-12 0-22 10-22 21 0 12 10 22 22 22z m0-342c-12 0-22 10-22 22 0 11 10 21 22 21 11 0 21-10 21-21 0-12-10-22-21-22z m-150 320c0 36-28 64-64 64-35 0-64-28-64-64 0-27 18-51 43-60l0-178c-25-9-43-33-43-60 0-36 29-64 64-64 36 0 64 28 64 64 0 27-18 51-42 60l0 178c24 9 42 33 42 60z m-64 22c12 0 22-10 22-22 0-11-10-21-22-21-11 0-21 10-21 21 0 12 10 22 21 22z m0-342c-11 0-21 10-21 22 0 11 10 21 21 21 12 0 22-10 22-21 0-12-10-22-22-22z"/>
<glyph glyph-name="flow-tree" unicode="&#57437;" d="M365 131c-27 0-50-17-60-40l-90 0c-38 0-42 33-42 42l0 106c12-6 26-9 42-9l90 0c10-23 33-39 60-39 36 0 65 29 65 65 0 36-29 65-65 65-27 0-50-16-60-39l-90 0c-38 0-42 32-42 42l0 63c23 10 39 33 39 60 0 36-29 65-65 65-36 0-65-29-65-65 0-27 16-50 39-60l0-254c0-37 25-94 94-94l90 0c10-23 33-39 60-39 36 0 65 29 65 65 0 36-29 66-65 66z m0 163c21 0 38-17 38-38 0-21-17-38-38-38-21 0-38 17-38 38 0 21 17 38 38 38z m-256 153c0 20 17 37 38 37 21 0 38-17 38-37 0-21-17-38-38-38-21 0-38 17-38 38z m256-419c-21 0-38 17-38 37 0 21 17 38 38 38 21 0 38-17 38-38 0-20-17-37-38-37z"/>
<glyph glyph-name="flow-triple" unicode="&#57438;" d="M473 125l0 63c0 38-26 94-94 94l-55 0c-38 0-42 19-42 28l0 77c23 10 39 33 39 60 0 36-29 65-65 65-36 0-65-29-65-65 0-27 16-50 39-60l0-77c0-7-2-28-42-28l-55 0c-68 0-94-56-94-94l0-63c-23-10-39-33-39-60 0-36 29-65 65-65 36 0 66 29 66 65 0 27-17 50-40 60l0 63c0 7 2 42 42 42l55 0c16 0 30 3 42 7l0-112c-23-10-39-33-39-60 0-36 29-65 65-65 36 0 65 29 65 65 0 27-16 50-39 60l0 112c12-4 26-7 42-7l55 0c38 0 42-32 42-42l0-63c-23-10-40-33-40-60 0-36 30-65 66-65 36 0 65 29 65 65 0 27-16 50-39 60z m-370-60c0-20-17-37-38-37-20 0-37 17-37 37 0 21 17 38 37 38 21 0 38-17 38-38z m115 382c0 20 17 37 38 37 21 0 38-17 38-37 0-21-17-38-38-38-21 0-38 17-38 38z m76-382c0-20-17-37-38-37-21 0-38 17-38 37 0 21 17 38 38 38 21 0 38-17 38-38z m153-37c-21 0-38 17-38 37 0 21 17 38 38 38 20 0 37-17 37-38 0-20-17-37-37-37z"/>
<glyph glyph-name="font" unicode="&#57439;" d="M0 32l32 0 320 480 128-480 32 0 0-32-160 0 0 32 32 0-30 128-204 0-86-128 64 0 0-32-128 0z m194 192l145 0-37 160z"/>
<glyph glyph-name="forbidden" unicode="&#57440;" d="M256 469c-118 0-213-95-213-213 0-118 95-213 213-213 118 0 213 95 213 213 0 118-95 213-213 213z m0-384c-94 0-171 77-171 171 0 39 14 76 36 105l240-240c-29-22-66-36-105-36z m135 66l-240 240c29 22 66 36 105 36 94 0 171-77 171-171 0-39-14-76-36-105z"/>
<glyph glyph-name="forward" unicode="&#57441;" d="M337 416l0-142-241 142 0-320 241 142 0-142 79 0 0 320z"/>
<glyph glyph-name="fuel" unicode="&#57442;" d="M330 79l0 205 14 0c8 0 14-6 14-14l0-130c0-34 27-61 61-61 33 0 60 27 60 61l0 250c0 13-5 25-14 34l-49 49c-9 9-23 9-32 0-9-9-9-24 0-33l32-32-24-24c-8-8-8-21 0-29 4-4 9-6 14-6l27 0 0-209c0-8-6-14-14-14-8 0-14 6-14 14l0 130c0 33-27 60-61 60l-14 0 0 112c0 21-16 37-37 37l-195 0c-21 0-37-16-37-37l0-363-5 0c-13 0-23-10-23-23 0-13 10-23 23-23l279 0c13 0 23 10 23 23 0 13-10 23-23 23z m-202 354l135 0c12 0 21-9 21-21l0-98c0-12-9-21-21-21l-135 0c-12 0-21 9-21 21l0 98c0 12 9 21 21 21z"/>
<glyph glyph-name="fullscreen" unicode="&#57443;" d="M96 128l320 0 0 256-320 0z m64 192l192 0 0-128-192 0z m-96 96l96 0 0 32-128 0 0-128 32 0z m0-224l-32 0 0-128 128 0 0 32-96 0z m288 256l0-32 96 0 0-96 32 0 0 128z m96-352l-96 0 0-32 128 0 0 128-32 0z"/>
<glyph glyph-name="gift" unicode="&#57445;" d="M256 32l160 0 0 160-160 0z m-192 0l160 0 0 160-160 0z m192 292c16 2 33 4 44 5 42 4 79 42 84 84 5 42-26 72-67 67-33-3-63-27-77-57-14 30-44 54-77 58-41 4-72-26-67-68 5-42 43-80 84-84 11-1 28-3 44-5 0-2 0-4 0-4l32 0c0 0 0 2 0 4z m54 118c22 2 39-14 36-37-2-22-23-43-45-45-23-3-39 13-37 36 3 23 23 43 46 46z m-131-82c-22 2-43 23-45 45-3 23 14 39 36 37 23-3 43-23 46-46 2-23-14-39-37-36z m77-40l0-96 192 0 0 96z m-224-96l192 0 0 96-192 0z"/>
<glyph glyph-name="github" unicode="&#57446;" d="M256 480c-124 0-224-103-224-230 0-101 64-187 153-218 11-2 16 5 16 11 0 6-1 20-1 40-62-14-75 30-75 30-10 27-25 34-25 34-20 14 1 14 1 14 23-2 35-24 35-24 20-35 52-25 65-19 2 15 8 25 14 31-50 6-102 25-102 113 0 25 9 46 23 62-2 6-10 29 2 61 0 0 19 6 62-24 18 5 37 8 56 8 19 0 38-3 56-8 43 30 62 24 62 24 12-32 4-55 2-61 14-16 23-37 23-62 0-88-53-107-103-113 8-7 16-21 16-42 0-31-1-56-1-63 0-7 4-14 16-11 89 30 153 116 153 217 0 127-100 230-224 230z"/>
<glyph glyph-name="go-back" unicode="&#57447;" d="M448 112c0 0-37 208-224 208l0 80-160-144 160-134 0 92c102 0 171-9 224-102z"/>
<glyph glyph-name="go-forward" unicode="&#57448;" d="M288 214l0-92 160 134-160 144 0-80c-187 0-224-208-224-208 53 93 122 102 224 102z"/>
<glyph glyph-name="google-drive" unicode="&#57449;" d="M187 157l-3 0-1-2-61-106-3-6 293 0 1 2 61 106 3 6z m157 27l1-2 3 0 122 0 8 0-4 7-142 245-1 2-3 0-122 0-7 0 3-7z m-102 125l-1 2-62 106-3 6-4-6-142-246-1-2 1-2 62-106 4-6 3 6 142 246z"/>
<glyph glyph-name="google-plus" unicode="&#57450;" d="M242 236l-18 14 0 0c-6 5-10 8-10 15 0 7 5 12 11 17l0 1c20 15 45 34 45 74 0 27-12 45-23 58l13 0 60 33-133 0c-26 0-63-3-95-29l0 0c-22-18-35-44-35-71 0-21 9-42 24-57 21-22 48-26 67-26 2 0 3 0 5 0-1-3-2-6-2-10 0-11 4-20 8-26-24-2-58-7-84-23-40-22-43-56-43-65 0-39 36-77 116-77 91 0 139 50 139 99 0 37-23 55-45 73z m-125 136c0 13 3 24 9 31 7 8 18 13 29 13 20 0 33-15 40-28 10-15 15-36 15-53 0-5 0-20-10-30-7-7-19-11-28-11-21 0-34 14-41 27-11 17-14 38-14 51z m121-228c0-27-25-45-66-45-48 0-80 21-80 52 0 26 21 37 38 42 18 6 44 8 50 8 4 0 6 0 8-1 37-25 50-36 50-56z m164 226l0 78-34 0 0-78-80 0 0-34 80 0 0-81 34 0 0 81 78 0 0 34z"/>
<glyph glyph-name="grid" unicode="&#57451;" d="M0 384l128 0 0 128-128 0z m192-384l128 0 0 128-128 0z m-192 0l128 0 0 128-128 0z m0 192l128 0 0 128-128 0z m192 0l128 0 0 128-128 0z m192 320l0-128 128 0 0 128z m-192-128l128 0 0 128-128 0z m192-192l128 0 0 128-128 0z m0-192l128 0 0 128-128 0z"/>
<glyph glyph-name="group" unicode="&#57452;" d="M349 177c-11 4-29 5-37 8-6 3-15 5-18 8-2 4-2 28-2 28 0 0 7 7 9 14 3 8 5 27 5 27 0 0 1 0 2 0 2 0 6 2 7 11 3 11 7 17 6 25-1 6-3 7-5 7-1 0-1 0-1 0 0 0 6 8 6 37 0 29-23 58-65 58-42 0-65-29-65-58 0-29 6-37 6-37 0 0 0 0-1 0-2 0-4-1-5-7-1-8 3-14 6-25 1-9 5-11 7-11 1 0 2 0 2 0 0 0 2-20 5-27 3-7 10-14 10-14 0 0 0-24-3-28-3-3-12-5-18-8-8-3-26-4-37-8-11-4-46-20-46-65l278 0c0 45-34 61-46 65z m-205 13c9 4 18 4 25 5 0 0 4 7-9 9 0 0-17 4-19 6-2 3-1 16-1 16 0 0 24 1 34 9-16 24-8 51-11 76-3 25-18 41-47 41 0 0 0 0-1 0-28 0-42-16-46-41-3-25 6-56-9-76 8-8 30-8 33-8 0 0 0 0 0 0 0 0 0 0 0 0 0 0 1-14-1-17-2-2-8-4-12-5-8-2-18-5-25-8-8-2-23-18-23-37l80 0c2 8 18 23 32 30z m256-30l80 0c0 19-15 35-22 37-8 3-18 6-26 8-4 1-10 3-12 5-2 3-1 17-1 17 0 0 0 0 0 0 0 0 0 0 0 0 3 0 25 0 34 8-16 21-7 51-10 76-4 25-18 41-46 41-1 0-1 0-1 0-29 0-44-16-47-41-3-25 5-53-11-76 10-8 34-9 34-9 0 0 1-13-1-16-2-2-19-6-19-6-13-3-9-9-9-9 7-1 16-1 25-5 15-7 30-22 32-30z"/>
<glyph glyph-name="hard-drive" unicode="&#57453;" d="M96 416c0 35 29 64 64 64l192 0c35 0 64-29 64-64l31-281c-3 14-16 25-31 25l-320 0c-18 0-32-14-32-32l0 0 0 0z m16-288c-27 0-48-21-48-48 0-27 22-48 48-48l288 0c27 0 48 21 48 48 0 27-22 48-48 48z m240-32l0-32 32 0 0 32z"/>
<glyph glyph-name="hash" unicode="&#57454;" d="M125 160l-93 0 0 54 101 0 13 84-99 0 0 54 107 0 22 128 64 0-22-128 106 0 22 128 63 0-22-128 93 0 0-54-102 0-12-84 99 0 0-54-106 0-23-128-63 0 22 128-107 0-21-128-64 0z m84 138l-12-84 106 0 12 84-106 0z"/>
<glyph glyph-name="history" unicode="&#57457;" d="M47 299c20 109 115 192 230 192 130 0 235-105 235-235 0-130-105-235-235-235-91 0-170 52-209 128l50 0c34-51 93-85 159-85 106 0 192 86 192 192 0 106-86 192-192 192-91 0-168-64-187-149z m220-50l111-66 11 18-101 60 0 144-21 0z m-203-36l64 86-128 0z"/>
<glyph glyph-name="html5-1" unicode="&#57459;" d="M147 424l18 0 0-20 20 0 0 60-20 0 0-20-18 0 0 20-20 0 0-60 20 0z m64-20l20 0 0 40 18 0 0 20-55 0 0-20 17 0z m66 30l13-22 1 0 13 22 0-30 20 0 0 60-20 0-13-21-13 21-21 0 0-60 20 0z m105-10l-28 0 0 40-20 0 0-60 48 0z m-284-46l29-319 128-36 127 36 29 319z m251-104l-150 0 4-41 143 0-11-120-80-22 0 0-81 22-5 63 39 0 3-32 44-12 0 0 43 12 5 50-136 0-10 119 196 0z"/>
<glyph glyph-name="icecream" unicode="&#57460;" d="M382 277l-253 0 127-273z m69 88c0 41-33 73-73 73-6 0-12 0-18-2-14 44-56 76-104 76-49 0-91-32-105-76-6 2-12 2-18 2-40 0-73-32-73-73 0-38 30-70 69-73l0 0 253 0 0 0c39 3 69 35 69 73"/>
<glyph glyph-name="ie" unicode="&#57461;" d="M499 248c0 37-9 72-25 102 5 12 10 27 16 48 18 68-24 109-90 102-39-4-77-15-113-31-3 0-6 0-9 0-108 0-199-78-217-182 45 66 112 101 112 101-46-48-85-94-114-144 0 0-1-1-1-2-24-42-41-85-49-133-10-65 23-99 93-89 24 3 67 24 79 30 30-14 63-22 97-22 97 0 178 61 209 147l-120 0c-17-30-49-50-85-50-53 0-96 42-98 94l313 0c2 10 2 20 2 29z m-396-212c-37-4-85 36-30 133 17-46 50-84 91-109-12-7-41-22-61-24z m81 249c6 48 48 85 98 85 50 0 91-37 97-85z m177 168c93 44 127-3 117-50-2-7-7-24-11-39-25 40-62 71-106 89z"/>
<glyph glyph-name="image" unicode="&#57462;" d="M368 288c27 0 48 21 48 48 0 26-21 48-48 48-26 0-48-22-48-48 0-27 22-48 48-48z m84 160l-392 0c-16 0-28-13-28-28l0-328c0-15 12-28 28-28l392 0c16 0 28 13 28 28l0 328c0 15-12 28-28 28z m-103-198c-3 4-8 6-13 6-5 0-9-2-13-5l-18-16c-4-3-7-5-12-5-4 0-8 2-11 4-1 1-3 3-4 4l-54 59c-4 4-10 7-17 7-6 0-13-3-16-8l-127-152 0 260c1 7 6 12 13 12l358 0c7 0 12-5 13-12l0-260z"/>
<glyph glyph-name="images" unicode="&#57463;" d="M458 372l-83 4-5 54c-1 11-11 19-23 18l-296-24c-11-1-20-11-19-22l21-236c1-11 11-19 23-18l15 1-2-46c-1-12 9-23 22-23l330-16c14-1 24 9 25 21l14 263c1 13-9 23-22 24z m-355-6l-7-134-18-25-16 178c0 0 0 0 0 0 0 1 0 1 0 1 1 5 4 9 10 9l261 22c5 0 9-3 10-8 0 0 0 0 0-1 0 0 1 0 1 0l2-31-219 11c-13 0-24-9-24-22z m334-236l-47 55-27 33c-3 2-7 5-11 5-4 0-8-1-11-4l-17-12c-3-2-6-3-9-3-4 0-7 1-10 4 0 0-2 2-3 3l-43 49c-3 4-8 6-14 7-5 0-11-3-14-6l-102-109-6-7 0 7 7 128 3 63c0 1 0 1 0 1 0 0 0 0 0 0 1 6 6 10 12 9l204-9 29-2 58-3c6 0 10-4 11-10 0 0 0 0 0 0 0-1 0-1 0-1z m-64 120c20 0 35 15 35 35 0 19-15 35-35 35-19 0-35-16-35-35 0-20 16-35 35-35z"/>
<glyph glyph-name="inbox" unicode="&#57464;" d="M256 204l128 116-80 0 0 96-96 0 0-96-80 0z m209 11l-71 55-42 0 62-62-51 0c-2 0-4-1-5-3l-18-45-168 0-18 45c-1 2-3 3-6 3l-50 0 62 62-42 0-72-55c-10-6-15-19-14-32l9-67c2-13 10-20 28-20l374 0c19 0 26 8 28 20l9 67c1 13-4 26-15 32z"/>
<glyph glyph-name="indent" unicode="&#57465;" d="M64 64l384 0 0 43-384 0z m0 277l0-170 85 85z m171-192l213 0 0 43-213 0z m-171 299l0-43 384 0 0 43z m171-128l213 0 0 43-213 0z m0-85l213 0 0 42-213 0z"/>
<glyph glyph-name="infinity" unicode="&#57466;" d="M422 313c-17 15-39 23-63 23-23 0-46-8-62-23l-32-29 23-20 31 28c10 10 25 15 40 15 16 0 30-5 41-15 11-10 17-22 17-36 0-14-6-27-17-36-11-10-25-15-41-15-15 0-30 5-40 15l-104 93c-16 15-39 23-62 23-24 0-46-8-63-23-17-15-26-36-26-57 0-22 9-42 26-57 17-15 39-23 63-23 23 0 46 8 62 23l32 29-22 20-31-28c-11-10-26-15-41-15-16 0-30 5-41 15-11 10-16 22-16 36 0 14 5 26 16 36 11 10 25 15 41 15 15 0 30-5 41-15l103-93c17-15 39-23 62-23 24 0 46 8 63 23 17 15 26 36 26 57 0 21-9 42-26 57z"/>
<glyph glyph-name="instagram" unicode="&#57468;" d="M390 469l-273 0c-48 0-86-39-86-86l0-274c0-47 38-86 86-86l273 0c47 0 86 39 86 86l0 274c0 47-39 86-86 86z m25-52l9 0 0-75-75 0 0 75z m-225-125c14 19 37 32 63 32 27 0 50-13 64-32 9-13 15-29 15-46 0-43-35-78-79-78-43 0-78 35-78 78 0 17 6 33 15 46z m243-183c0-23-20-42-43-42l-273 0c-24 0-43 19-43 42l0 183 67 0c-6-14-9-30-9-46 0-67 54-122 121-122 68 0 122 55 122 122 0 16-3 32-9 46l67 0z"/>
<glyph glyph-name="ipod" unicode="&#57469;" d="M256 201c-18 0-32-14-32-32 0-18 14-32 32-32 18 0 32 14 32 32 0 18-14 32-32 32z m84 247l-168 0c-16 0-28-12-28-28l0-328c0-16 12-28 28-28l168 0c16 0 28 12 28 28l0 328c0 16-12 28-28 28z m-84-352c-40 0-72 32-72 72 0 40 32 72 72 72 40 0 72-32 72-72 0-40-32-72-72-72z m80 189c-1-7-7-13-15-13l-131 0c-8 0-14 6-14 15l0 114c0 8 5 14 12 15l136 0c6-1 11-7 12-13z"/>
<glyph glyph-name="italic" unicode="&#57470;" d="M213 427l0-64 48 0-74-171-59 0 0-64 171 0 0 64-48 0 74 171 59 0 0 64z"/>
<glyph glyph-name="key" unicode="&#57471;" d="M58 124c-14-15-14-38 0-53 14-14 38-14 52 0l11 11 43-44c7-7 19-7 27 0l65 65c7 7 7 19 0 27l-44 43 78 78c16-9 35-14 55-14 67 0 121 55 121 121 0 67-54 121-121 121-67 0-121-54-121-121 0-20 5-38 13-55z m240 234c0 26 21 47 47 47 26 0 46-21 46-47 0-25-20-46-46-46-26 0-47 21-47 46z"/>
<glyph glyph-name="keyboard" unicode="&#57472;" d="M320 224l32 0 0 64-32 0z m64 160l-32 0 0-64 32 0z m-64 0l-32 0 0-64 32 0z m-64-160l32 0 0 64-32 0z m-64-96l160 0 0 64-160 0z m192 96l64 0 0 160-32 0 0-96-32 0z m-256-96l32 0 0 64-32 0z m256 0l64 0 0 64-64 0z m-128 256l-32 0 0-64 32 0z m-160-96l-32 0 0-64 32 0z m0-96l-32 0 0-64 32 0z m-96 256l0-384 512 0 0 384z m480-352l-448 0 0 320 448 0z m-288 128l32 0 0 64-32 0z m-64 160l-64 0 0-64 64 0z m64 0l-32 0 0-64 32 0z m-64-160l32 0 0 64-32 0z"/>
<glyph glyph-name="keypad" unicode="&#57473;" d="M395 171c-30 0-54-24-54-54 0-29 24-53 54-53 29 0 53 24 53 53 0 30-24 54-53 54z m-139 0c-29 0-53-24-53-54 0-29 24-53 53-53 30 0 53 24 53 53 0 30-23 54-53 54z m-139 0c-29 0-53-24-53-54 0-29 24-53 53-53 30 0 54 24 54 53 0 30-24 54-54 54z m278 138c-30 0-54-24-54-53 0-30 24-53 54-53 29 0 53 23 53 53 0 29-24 53-53 53z m-139 0c-29 0-53-24-53-53 0-30 24-53 53-53 30 0 53 23 53 53 0 29-23 53-53 53z m-139 0c-29 0-53-24-53-53 0-30 24-53 53-53 30 0 54 23 54 53 0 29-24 53-54 53z m278 32c29 0 53 24 53 54 0 29-24 53-53 53-30 0-54-24-54-53 0-30 24-54 54-54z m-139 107c-29 0-53-24-53-53 0-30 24-54 53-54 30 0 53 24 53 54 0 29-23 53-53 53z m-139 0c-29 0-53-24-53-53 0-30 24-54 53-54 30 0 54 24 54 54 0 29-24 53-54 53z"/>
<glyph glyph-name="label" unicode="&#57474;" d="M330 512l-154 0c-15 0-22-13-22-28l0-484 102 102 102-102 0 484c0 15-12 28-28 28z"/>
<glyph glyph-name="labels" unicode="&#57475;" d="M371 512l-107 0c-14 0-21-11-21-26l51 0c15 0 26-11 26-25l0-318 77-92 0 435c0 15-12 26-26 26z m-128-77l-107 0c-14 0-21-11-21-25l0-410 77 92 77-92 0 410c0 14-12 25-26 25z"/>
<glyph glyph-name="languages" unicode="&#57476;" d="M275 190l-55 54 64 1c37 41 64 89 80 139l62 0 0 43-149 0 0 42-43 0 0-42-149 0 0-43 238 0c-14-41-37-80-68-114-19 22-36 46-49 71l-43 0c16-34 37-67 64-97l-108-107 30-30 106 106 67-66 16 43z m120 109l-43 0-96-256 43 0 24 64 101 0 24-64 43 0z m-56-150l34 93 35-93z"/>
<glyph glyph-name="laptop" unicode="&#57477;" d="M0 32l64 128 384 0 64-128z m64 448l0-288 384 0 0 288z m352-256l-320 0 0 224 320 0z"/>
<glyph glyph-name="lastfm" unicode="&#57478;" d="M405 273c-4 1-8 2-12 4-27 8-44 13-44 35 0 17 14 30 32 30 14 0 25-6 34-19 1-2 3-2 4-1l28 14c1 0 1 1 2 2 0 0 0 1-1 2-15 26-36 39-65 39-45 0-73-27-73-68 0-43 27-60 79-77 29-10 42-15 42-36 0-24-21-41-50-40-31 1-40 17-52 44-19 45-42 97-42 98-23 52-67 82-123 82-73 0-132-60-132-133 0-73 59-133 132-133 40 0 78 18 103 49 1 1 1 2 0 3l-16 39c-1 1-2 2-3 2-1 0-2-1-3-2-16-30-47-49-81-49-50 0-91 41-91 91 0 50 41 91 91 91 37 0 70-22 84-54l41-94 5-11c18-43 46-63 89-63 51 0 90 34 90 79 0 45-25 62-68 76z"/>
<glyph glyph-name="law" unicode="&#57479;" d="M257 416c17 0 31 14 31 31 1 18-14 33-33 33-17-1-30-14-31-31 0-19 15-34 33-33z m232-192l-9 0-63 123c9 1 18 4 26 8 12 5 14 21 5 31l0 0c-6 6-14 8-22 4-7-3-17-6-26-6-28 0-41 32-144 32-103 0-115-32-143-32-10 0-20 3-27 6-7 3-16 2-21-4l-1 0c-9-10-6-25 6-31 8-4 17-7 26-8l-64-123-9 0c-4 0-7-4-6-8 5-32 46-56 95-56 50 0 90 24 96 56 0 4-3 8-7 8l-9 0-63 122c41 4 63 25 95 25l0-243c-17 0-32-15-32-32l-35 0c-14 0-29-15-29-32l256 0c0 17-14 32-35 32l-29 0c0 17-14 32-32 32l0 243c32 0 54-21 96-25l-64-122-9 0c-4 0-7-4-6-8 5-32 46-56 95-56 50 0 90 24 96 56 0 4-3 8-7 8z m-329 0l-96 0 48 90z m192 0l48 90 48-90z"/>
<glyph glyph-name="layers" unicode="&#57480;" d="M64 362l0-298 298 0 0 298z m86 86l0-71 227 0 0-227 71 0 0 298z"/>
<glyph glyph-name="leaf-1" unicode="&#57481;" d="M129 417c-105-61-99-159-95-196 134 160 336 152 336 152 0 0-285-98-369-294-7-15 31-36 39-17 26 54 62 95 62 95 52-19 144-42 208 3 86 60 77 194 200 260 29 15-240 78-381-3z"/>
<glyph glyph-name="go-left" unicode="&#57482;" d="M160 256l192-192 0 384z"/>
<glyph glyph-name="go-back-double" unicode="&#57483;" d="M0 256l192 160 0-27-160-133 160-133 0-27z m64 0l192 160 0-99c113-10 202-54 256-189-79 66-159 89-256 76l0-108z"/>
<glyph glyph-name="license" unicode="&#57484;" d="M461 461l-410 0c-28 0-51-23-51-51l0-308c0-28 23-51 51-51l410 0c28 0 51 23 51 51l0 308c0 28-23 51-51 51z m0-359l-410 0 0 308 410 0z m-231 100l-128 0 0-46 128 0z m0 77l-128 0 0-46 128 0z m0 77l-128 0 0-46 128 0z m177-164c0 0-43 11-43 34 0 21 28 30 28 74 0 35-11 56-46 56-36 0-46-21-46-56 0-44 28-53 28-74 0-23-44-34-44-34-2 0-2-36-2-36l128 0c0 0 0 36-3 36z"/>
<glyph glyph-name="lightning" unicode="&#57485;" d="M416 288l-128 0 96 224-288-288 128 0-96-224z"/>
<glyph glyph-name="line-chart" unicode="&#57486;" d="M18 222l35-9 26 42-50 12c-13 3-25-5-28-17-3-12 4-25 17-28z m455-7l-114-103-134 104c-3 2-6 4-9 5l-18 4-26-41 28-7 146-113c4-3 9-5 14-5 6 0 11 2 16 6l128 116c10 8 11 23 2 33-9 9-23 10-33 1z m-251 113l125-80c11-7 25-4 32 6l129 186c7 10 5 25-6 32-11 7-25 5-32-6l-116-167-126 81c-5 3-12 4-18 3-6-1-11-5-14-10l-192-302c-7-10-4-25 7-32 4-2 8-3 12-3 8 0 15 4 20 11z"/>
<glyph glyph-name="line-spacing" unicode="&#57487;" d="M128 363l53 0-74 74-75-74 53 0 0-214-53 0 75-74 74 74-53 0z m85 42l0-42 256 0 0 42z m0-298l256 0 0 42-256 0z m0 128l256 0 0 42-256 0z"/>
<glyph glyph-name="link" unicode="&#57488;" d="M188 106l-26-26c-23-22-59-22-82 0-11 11-17 25-17 40 0 15 6 29 17 40l96 95c19 19 56 48 84 21 12-12 32-12 44 1 13 12 13 32 0 44-46 46-114 38-173-21l-96-95c-22-23-35-53-35-85 0-32 13-62 35-85 24-23 55-35 86-35 31 0 62 12 85 35l26 26c13 12 13 32 0 45-12 12-32 12-44 0z m289 367c-50 49-119 52-165 7l-32-32c-13-13-13-33 0-45 12-13 32-13 44 0l33 32c23 23 55 13 75-7 11-10 17-25 17-40 0-15-6-29-17-40l-102-101c-46-46-68-24-78-15-12 12-32 12-44 0-13-13-13-33 0-45 21-21 45-32 71-32 31 0 64 16 96 47l102 101c22 23 35 53 35 85 0 32-13 63-35 85z"/>
<glyph glyph-name="linkedin" unicode="&#57489;" d="M417 448l-320 0c-18 0-33-13-33-30l0-321c0-17 15-33 33-33l320 0c18 0 31 16 31 33l0 321c0 17-13 30-31 30z m-234-320l-55 0 0 171 55 0z m-26 197l0 0c-18 0-29 13-29 29 0 17 12 30 30 30 18 0 29-13 29-30 0-16-11-29-30-29z m227-197l-55 0 0 93c0 23-8 38-28 38-15 0-24-10-28-20-2-4-2-9-2-14l0-97-55 0 0 171 55 0 0-24c8 12 21 28 50 28 36 0 63-24 63-75z"/>
<glyph glyph-name="locked" unicode="&#57491;" d="M86 32l340 0c12 0 22 10 22 22l0 212c0 12-10 22-22 22l-22 0 0 31c0 41-16 87-43 115-26 28-64 46-105 46 0 0 0 0 0 0 0 0 0 0 0 0-41 0-79-18-105-46-27-27-43-74-43-115l0-31-22 0c-12 0-22-10-22-22l0-212c0-12 10-22 22-22z m75 287c0 27 10 61 28 80l0 0c18 19 42 30 67 30l0 0c25 0 49-11 67-30l0 0 0 0c18-19 28-53 28-80l0-31-190 0z"/>
<glyph glyph-name="magento" unicode="&#57492;" d="M260 500l-210-130 0-230 56-33 0 231 154 96 154-96 0-231 56 33 0 230z m34-418l-34-20-33 20 0 267-64-38 0-240 97-61 97 61 0 240-63 38z"/>
<glyph glyph-name="magnet" unicode="&#57493;" d="M319 27c-1-9 6-17 16-17l116-10c9-1 18 6 19 15l9 96-151 12z m-286 84l9-96c1-9 10-16 19-15l116 10c10 0 17 8 16 17l-9 96z m-15 157l10-98 150 12-9 98c0 3 0 5 0 8 0 45 39 82 87 82 48 0 87-37 87-82 0-3 0-5 0-8l-9-98 150-12 10 98c0 7 1 13 1 20 0 123-107 224-239 224-132 0-239-101-239-224 0-7 1-13 1-20z"/>
<glyph glyph-name="map" unicode="&#57495;" d="M-2 9l126 104 0 211-126-103z m255 214l-123 101 0-211 123-102z m41 202c0-22-18-40-40-40-22 0-40 18-40 40 0 22 18 39 40 39 22 0 40-18 40-39m30-40c7 12 11 25 11 40 0 43-36 79-79 79-44 0-80-36-80-79 0-20 7-37 19-51l61-88 61 89c3 3 5 6 7 9l0 1z m-65-373l121 100 0 212-121-100z m254-3l0 212-127 105 0-212z"/>
<glyph glyph-name="maxthon" unicode="&#57496;" d="M255 490c31 0 62-6 91-18 28-12 53-29 74-51 22-21 39-46 51-74 12-29 18-60 18-92 0-31-6-62-18-91-12-28-29-53-51-74-21-22-46-39-74-51-29-12-60-18-91-18-32 0-63 6-92 18-28 12-53 29-74 51-22 21-39 46-51 74-12 29-18 60-18 91 0 32 6 63 18 92 12 28 29 53 51 74 21 22 46 39 74 51 29 12 60 18 92 18m0 10c-136 0-245-109-245-245 0-135 109-244 245-244 135 0 244 109 244 244 0 136-109 245-244 245z m0-48c-109 0-197-88-197-197 0-108 88-196 197-196 108 0 196 88 196 196 0 109-88 197-196 197z m33-293l-66 0 0 97 66 0z m96 133l0-133-66 0 0 128-126 0 0-128-66 0 0 194 192 0c0 0 27-1 45-18 22-23 21-43 21-43z"/>
<glyph glyph-name="medal" unicode="&#57497;" d="M144 479c-20 0-37-16-37-37l0-93c0-13 6-25 14-33l41-41c-28-25-46-62-46-103 0-77 63-139 140-139 77 0 140 62 140 139 0 41-18 78-46 103l41 41c8 8 14 20 14 33l0 93c0 21-17 37-37 37l-224 0z m112-232c3 0 6-2 7-5l17-42 43 0c4 0 7-4 7-8 0-2-1-4-2-5l-37-25c0 0 12-44 12-46 0 0 0-1 0-2 0-4-3-7-7-7-1 0-3 1-4 2l-36 28-36-28c-1-1-3-2-4-2-4 0-7 3-7 7 0 1 0 2 0 2 0 2 12 46 12 46l-37 25c-1 1-2 3-2 5 0 4 3 8 7 8l43 0 17 42c1 3 4 5 7 5z m-65 167l0-65c0-10-8-19-19-19-10 0-18 9-18 19l0 65c0 10 8 19 18 19 11 0 19-9 19-19z m84 0l0-84c0-10-9-18-19-18-10 0-19 8-19 18l0 84c0 10 9 19 19 19 10 0 19-9 19-19z m83 0l0-65c0-10-8-19-18-19-10 0-19 9-19 19l0 65c0 10 9 19 19 19 10 0 18-9 18-19z"/>
<glyph glyph-name="mic" unicode="&#57498;" d="M256 158c44 0 79 38 79 84l0 154c0 46-35 84-79 84-44 0-79-38-79-84l0-154c0-46 35-84 79-84z m111 162l0-80c0-60-50-109-110-109-60 0-110 49-110 109l0 80-19 0 0-80c0-67 53-122 120-127l0-63-73 0 0-18 161 0 0 18-69 0 0 63c66 5 117 60 117 127l0 80z"/>
<glyph glyph-name="mic-off" unicode="&#57499;" d="M136 472l14 8 258-440-14-8z m120-313c13 0 24 2 34 8l-113 193 0-118c0-46 35-83 79-83z m79 83l0 154c0 46-35 84-79 84-25 0-48-13-62-32l137-234c3 9 4 18 4 28z m49-2l0 80-17 0 0-80c0-21-6-41-17-58l10-17c15 21 24 47 24 75z m-117-127c17 1 33 6 47 13l-9 16c-15-7-31-11-48-11-60 0-110 49-110 109l0 80-19 0 0-80c0-67 53-122 120-127l0-63-73 0 0-18 161 0 0 18-69 0 0 63z"/>
<glyph glyph-name="microscope" unicode="&#57500;" d="M373 64c43 9 75 50 75 96 0 29-13 55-34 73 1 7 2 15 2 23 0 52-25 99-64 128l32 32 0 32 32 32-32 32-32-32-32 0-128-128-64-32 0-64 32-32 64 0 32 64 48 48c28-17 48-45 48-80-53 0-96-43-96-96l-192 0 0-32 96 0c10-7 21-11 32-16l0-48-64 0-64-64 384 0-64 64z m-53 96c0 18 14 32 32 32 18 0 32-14 32-32 0-18-14-32-32-32-18 0-32 14-32 32z"/>
<glyph glyph-name="minus" unicode="&#57501;" d="M0 320l0-128 512 0 0 128z"/>
<glyph glyph-name="monitor" unicode="&#57502;" d="M469 448l-426 0c-6 0-11-5-11-11l0-266c0-6 5-11 11-11l426 0c6 0 11 5 11 11l0 266c0 6-5 11-11 11z m-21-256l-384 0 0 224 384 0z m-145-128c28 0 41 4 29 12-13 9-29 16-29 23-1 4-2 45-2 45l-90 0c0 0-1-41-1-45-1-7-17-14-29-23-13-8 1-12 29-12z"/>
<glyph glyph-name="more" unicode="&#57503;" d="M114 208c-28 0-50 21-50 48 0 26 22 48 50 48 27 0 50-22 50-48 0-27-23-48-50-48z m142 0c-27 0-50 21-50 48 0 26 23 48 50 48 28 0 50-22 50-48 0-27-22-48-50-48z m142 0c-27 0-50 21-50 48 0 26 23 48 50 48 28 0 50-22 50-48 0-27-22-48-50-48z"/>
<glyph glyph-name="more-vertical" unicode="&#57504;" d="M256 341c24 0 43 19 43 43 0 24-19 43-43 43-24 0-43-19-43-43 0-24 19-43 43-43z m0-42c-24 0-43-19-43-43 0-24 19-43 43-43 24 0 43 19 43 43 0 24-19 43-43 43z m0-128c-24 0-43-19-43-43 0-24 19-43 43-43 24 0 43 19 43 43 0 24-19 43-43 43z"/>
<glyph glyph-name="mortar-board" unicode="&#57505;" d="M251 218l-123 38 0-80c0-27 58-48 128-48 71 0 128 21 128 48l0 80-122-38c-4-1-8-1-12 0z m253 128l-244 76c-2 1-5 1-7 0l-244-76c-11-3-11-18 0-21l55-18 0-56c-9-6-16-16-16-28 0-6 2-11 5-16-3-4-5-10-5-16l0-82c0-18 64-18 64 0l0 82c0 6-1 12-4 16 2 5 4 10 4 16 0 12-6 22-16 28l0 46 157-49c2 0 4 0 6 0l245 76c10 4 10 18 0 22z m-247-26c-18 0-32 7-32 16 0 9 14 16 32 16 17 0 32-7 32-16 0-9-15-16-32-16z"/>
<glyph glyph-name="mouse" unicode="&#57506;" d="M457 256c0 55-41 101-94 110-1 63-53 113-116 113-64 0-116-52-116-116l0-144c0-26-21-47-47-47l-4 0c-13 0-24-10-24-23 0-13 11-23 24-23l4 0c52 0 93 41 93 93l0 144c0 39 32 70 70 70 38 0 69-31 70-69-48-12-84-56-84-108l0-111c0-62 50-112 112-112 62 0 112 50 112 112z m-93 47l0-56c0-11-9-19-19-19-10 0-19 8-19 19l0 56c0 10 9 18 19 18 10 0 19-8 19-18z"/>
<glyph glyph-name="multitrack" unicode="&#57507;" d="M149 128l43 0 0 256-43 0z m86-85l42 0 0 426-42 0z m-171 170l43 0 0 86-43 0z m256-85l43 0 0 256-43 0z m85 171l0-86 43 0 0 86z"/>
<glyph glyph-name="music" unicode="&#57508;" d="M416 192l0 242-224-35 0-237c-9 0-21 0-43-1-43-2-53-22-53-41 0-25 14-44 63-42 52 2 50 49 50 83l0 161 191 32 0-160c-9 0-20-1-43-2-42-1-52-22-52-41 0-25 13-44 62-41 53 2 49 49 49 82z"/>
<glyph glyph-name="navigator" unicode="&#57510;" d="M254 210c7 0 13 0 19 0l-93 107 1-113c24 4 49 6 73 6z m-91-9l1 135-29 34-23 0 0 12 68 0 145-176c4 0 7 0 10-1l0 148c0 0-1 7-4 11-5 5-10 6-10 6l-23 0 0 12 92 0 0-12-23 0c0 0-6-1-10-6-4-4-5-11-5-11l0-150c48-8 87-23 127-42 13 29 20 61 20 95 0 136-109 245-244 245-136 0-245-109-245-245 0-32 6-63 18-91 22 9 76 26 135 36z m90-14c-26 0-50-2-72-6l0-26c0 0 0-7 4-11 4-4 10-5 10-5l23 0 0-12-92 0 0 12 23 0c0 0 5 1 10 5 4 4 4 11 4 11l0 23c-48-9-87-26-120-44 42-73 121-122 212-122 96 0 180 56 219 138-17 7-91 38-221 37z"/>
<glyph glyph-name="network" unicode="&#57512;" d="M124 342c6 0 11-1 17-3 19 22 40 42 63 59-1 4-1 8-1 13 0 6 1 11 2 17-25 18-54 34-83 46-28-17-53-40-72-66 14-26 31-50 51-72 7 4 15 6 23 6z m-54-55c0 8 2 15 4 22-17 19-33 40-47 62-17-35-27-74-27-115 0-48 13-93 36-131 8 46 24 90 45 130-7 9-11 20-11 32z m187 178c14 0 27-6 37-15 29 13 58 22 90 28-38 22-82 34-128 34-32 0-62-6-90-16 22-11 43-24 63-39 8 5 18 8 28 8z m81-257c4 8 9 14 15 19-16 49-42 94-75 133-6-2-13-4-21-4-12 0-23 4-32 10-19-15-38-32-54-50 5-8 8-18 8-29 0-5-1-11-3-16 48-32 103-54 162-63z m71-73c1-10 1-21 1-31 0-19-1-37-3-55 43 32 76 77 93 129-20-5-40-8-61-10-5-15-16-27-30-33z m-83 37c-64 10-122 34-173 69-8-5-18-8-29-8-3 0-7 0-11 1-24-46-40-98-44-153 24-26 54-47 87-61 42 64 100 117 170 152z m102 274c-41-4-80-15-117-30 0-2 0-4 0-5 0-9-2-17-5-24 36-43 65-93 82-148 23 0 42-14 50-33 24 3 48 7 71 14 2 12 3 24 3 36 0 75-32 143-84 190z m-75-303c-65-31-120-78-159-135 20-5 41-8 62-8 39 0 75 9 108 24 5 26 8 52 8 80 0 10 0 19-1 29-7 2-13 6-18 10z"/>
<glyph glyph-name="note" unicode="&#57513;" d="M305 512l-44 0 0-356c-24 9-55 9-86-2-55-20-88-69-73-109 14-40 71-56 126-36 47 17 78 55 77 90l0 291c76-12 81-108 72-135-3-10 3-18 14 0 83 128-86 184-86 257z"/>
<glyph glyph-name="opera" unicode="&#57514;" d="M347 252c0 2 0 3 0 5l0 0c-1 64-7 105-17 133-4 14-10 25-16 33-5 8-11 13-17 17-6 5-14 8-21 10-7 1-14 1-18 1-1 0-2 0-3 0-1 0-2 0-3 0-4 0-11 0-18-1-7-2-15-5-21-10-5-4-11-9-17-17-9-12-17-30-23-58-6-26-9-61-10-108l0 0c0-1 0-3 0-4 0-2 0-4 0-6l0 0c1-62 8-102 17-129 5-14 10-24 16-32 6-7 12-13 17-17 7-5 14-7 21-9 7-1 14-2 18-2 1 0 2 0 3 0 1 0 2 0 3 0 4 0 11 1 18 2 7 2 15 4 21 9 6 4 12 10 17 17 9 12 17 29 23 56 6 26 9 59 10 105l0 0c0 2 0 3 0 5z m-24-131c-4-14-9-23-15-30-5-7-10-12-15-16-6-4-12-6-19-8-6-1-12-1-16-1-1 0-2 0-2 0l0 0 0 0c0 0 0 0-1 0 0 0 0 0 0 0l-1 0 0 0 0 0 0 0c0 0-1 0-2 0-4 0-10 0-16 1-7 2-13 4-19 8-5 4-10 9-15 16-8 10-16 27-22 53-5 25-9 60-9 108 0 67 7 108 16 135 4 14 10 24 15 31 5 8 10 13 15 16 6 5 12 7 19 8 6 2 12 2 16 2 1 0 2 0 2 0l0 0 0 0c0 0 1 0 1 0 0 0 0 0 1 0l0 0 0 0 0 0 0 0 0 0 0 0c0 0 1 0 2 0 4 0 10 0 16-2 7-1 13-3 19-8 5-3 10-8 15-16 8-11 16-27 22-54 5-26 9-62 9-111 0-65-7-106-16-132z m151 213c-41 138-148 166-219 166-73 0-178-28-219-166-8-27-11-54-11-79 0-26 3-53 11-80 41-138 146-166 219-166 71 0 178 28 219 166 8 27 11 54 11 80 0 25-3 52-11 79z m-169-272c-15-13-41-15-50-15-9 0-35 2-50 15-21 16-48 51-49 193 1 141 28 176 49 193 15 12 41 14 50 14 9 0 35-2 50-14 21-17 48-52 48-193 0-142-27-177-48-193z"/>
<glyph glyph-name="ordered-list" unicode="&#57515;" d="M224 224l224 0 0 64-224 0z m0-128l224 0 0 64-224 0z m0 320l0-64 224 0 0 64z m-120-128l39 0 0 128-18 0-43-12 0-25 22 1z m55-103c0 18-6 39-48 39-17 0-32-3-42-8l1-33c10 5 21 7 33 7 13 0 16-5 16-14 0-13-15-29-55-56l0-25 96 0 0 34-45-1c24 15 43 33 43 56z"/>
<glyph glyph-name="outdent" unicode="&#57516;" d="M235 149l213 0 0 43-213 0z m-171 107l85-85 0 170z m0-192l384 0 0 43-384 0z m0 384l0-43 384 0 0 43z m171-128l213 0 0 43-213 0z m0-85l213 0 0 42-213 0z"/>
<glyph glyph-name="page" unicode="&#57517;" d="M54 506l0-500c0-3 2-6 5-6l394 0c3 0 5 3 5 6l0 500c0 3-2 6-5 6l-394 0c-3 0-5-3-5-6z m54-75l0-27 296 0 0 27z m0-81l0-27 296 0 0 27z m0-81l0-26 296 0 0 26z m0-80l0-27 296 0 0 27z m0-81l0-27 188 0 0 27z"/>
<glyph glyph-name="paint" unicode="&#57518;" d="M384 427l0 21c0 12-10 21-21 21l-256 0c-12 0-22 10-22-21l0-85c0-12 96-22 22-22l256 0c11 0 21 10 21 22l0 21 21 0 0-85-213 0 0-235c0-12 96-21 21-21l43 0c12 0 21 9 21 21l0 192 171 0 0 171z"/>
<glyph glyph-name="palette-1" unicode="&#57519;" d="M256 448c-106 0-192-86-192-192 0-106 86-192 192-192 18 0 32 14 32 32 0 8-3 16-8 21-5 6-8 13-8 22 0 17 14 32 32 32l37 0c59 0 107 47 107 106 0 95-86 171-192 171z m-117-192c-18 0-32 14-32 32 0 18 14 32 32 32 17 0 32-14 32-32 0-18-15-32-32-32z m64 85c-18 0-32 15-32 32 0 18 14 32 32 32 17 0 32-14 32-32 0-17-15-32-32-32z m106 0c-17 0-32 15-32 32 0 18 15 32 32 32 18 0 32-14 32-32 0-17-14-32-32-32z m64-85c-17 0-32 14-32 32 0 18 15 32 32 32 18 0 32-14 32-32 0-18-14-32-32-32z"/>
<glyph glyph-name="paperplane" unicode="&#57520;" d="M498 461c-10-3-482-170-491-173-8-3-10-10-1-14 12-4 106-42 106-42l0 0 63-25c0 0 301 222 305 225 4 3 9-3 6-6-3-4-219-237-219-237 0 0 0 0 0 0l-13-14 17-9 0 0c0 0 130-70 139-75 8-4 18-1 21 9 2 12 79 342 81 349 2 10-5 15-14 12z m-324-404c0-7 4-9 9-4 7 6 80 71 80 71l-89 46z"/>
<glyph glyph-name="paragraph" unicode="&#57521;" d="M336 256c0 3 0 21-12 42-12 21-37 44-76 53-25 7-32 16-36 23-2 3-3 7-4 9 0 1 0 1 0 2 1 20 6 21 14 26 4 3 10 4 13 4 2 1 4 1 5 1 0 0 0 0 0 0 21-1 22-6 27-14 2-4 4-10 4-13 1-2 1-4 1-5 0 0 0 0 0 0l10 0 54 0c0 3 0 23-11 46-11 24-42 51-85 50-3 0-23 0-46-11-24-11-51-42-50-85 0-3 0-21 12-42 4-6 8-12 14-18-6-7-11-15-15-22-11-23-11-43-11-46 0-3 0-21 12-42 12-21 37-44 76-53 25-7 32-16 36-23 2-3 3-7 4-9 0-1 0-1 0-2-1-20-6-21-14-26-4-3-10-4-13-4-2-1-4-1-5-1 0 0 0 0 0 0-21 1-22 6-27 14-2 4-4 10-4 13-1 2-1 4-1 5 0 0 0 0 0 0l0 0-11 0-53 0c0-3 0-23 11-46 11-24 40-50 82-50 1 0 2 0 3 0 3 0 23 0 46 11 24 11 51 42 50 85 0 3 0 21-12 42-4 6-8 12-14 18 6 7 11 15 15 22 11 23 11 43 11 46z m-124-10c-2 3-3 7-4 9 0 1 0 1 0 1 0 3 2 13 5 19 5 7 7 11 23 13 21-7 28-15 32-22 2-3 3-7 4-9 0-1 0-1 0-2 0-3-2-12-5-18-5-7-7-11-23-13-22 7-28 15-32 22z"/>
<glyph glyph-name="pause" unicode="&#57522;" d="M128 416l79 0 0-320-79 0z m177 0l79 0 0-320-79 0z"/>
<glyph glyph-name="paypal" unicode="&#57523;" d="M460 410c8-16 12-34 12-57 0-52-22-93-65-125-43-32-104-47-182-47l-18 0c-14 0-28-11-31-24l-22-94c-3-13-17-24-30-24l-40 0-4-15c-3-13 6-24 20-24l64 0c13 0 27 11 30 24l22 93c3 14 17 24 30 24l19 0c78 0 138 16 182 48 43 31 65 73 65 125 0 22-4 41-12 56-8 16-20 28-35 37-2 1-3 2-5 3z m-346-307l22 93c3 13 17 24 31 24l18 0c78 0 139 16 182 47 44 32 65 74 65 125 0 23-4 42-12 57-8 15-20 28-35 37-16 10-34 16-55 20-22 4-47 6-76 6l-133 0c-14 0-27-11-30-24l-90-385c-3-14 5-24 19-24l64 0c14 0 27 10 30 24z m53 223l19 82c3 13 17 24 30 24l21 0c25 0 43-4 56-12 12-8 18-21 18-38 0-25-9-45-29-59-19-14-46-21-80-21l-16 0c-14 0-22 11-19 24z"/>
<glyph glyph-name="pdf" unicode="&#57524;" d="M28 23c-9 2-14 6-18 15-3 7-4 20-1 29 1 7 6 17 10 23 18 26 63 55 116 75l8 3 5 7c24 39 51 93 65 132l4 9-3 6c-9 25-18 60-21 84-1 20 0 46 5 60 5 18 17 29 35 32 12 3 20 1 34-7 12-7 16-16 15-33-2-34-11-84-23-125-2-7-4-14-4-14 0-2 12-23 21-37 14-20 32-44 49-63l6-7 23 0c26 0 39-2 63-7 34-6 54-16 70-32 7-8 12-15 15-25 3-9 4-23 1-31-4-12-13-21-24-26-10-5-16-7-28-7-13 1-21 3-35 10-26 12-55 35-89 70-10 10-10 11-13 10-48-6-90-16-131-30l-17-5-4-6c-28-42-62-80-85-95-18-13-37-18-49-15z m22 39c9 5 16 10 28 22 12 12 24 26 23 26-1 1-5-2-11-5-25-15-43-32-47-44 0-3 0-3 7 1z m410 59c9 2 12 10 7 19-6 15-24 24-55 31-18 3-47 6-47 5 0-2 26-24 38-33 27-20 43-26 57-22z m-255 67c17 5 57 14 77 17 4 1 7 1 7 1 0 1-4 5-8 10-11 14-23 30-33 45-5 7-9 13-9 13 0 0-3-5-6-12-6-15-22-47-31-63-4-7-7-13-7-13 0-1 1-1 2 0 1 0 4 1 8 2z m31 199c3 14 7 37 9 56 2 18 2 19 1 20-5 3-11 0-14-5-4-10-5-40-2-58 1-9 3-21 4-21 0 0 1 3 2 8z"/>
<glyph glyph-name="picasa" unicode="&#57525;" d="M346 445c-29 13-60 20-91 20-27 0-53-5-78-15 6-5 161-146 169-153 0 11 0 145 0 148z m-205-390c0 8 0 180 0 190-8-7-89-81-92-83 18-45 50-82 92-107z m-108 189c0-19 3-39 8-58 6 6 193 175 197 178-4 4-82 74-84 76-74-38-121-113-121-196z m131-97c0-4 0-102 0-105 22-10 46-16 70-19l41 0c76 7 144 55 178 124-8 0-284 0-289 0z m205 285c0-8 0-257 0-261 5 0 91 0 94 0 9 23 13 48 13 73 0 76-41 148-107 188z"/>
<glyph glyph-name="pin" unicode="&#57527;" d="M357 421c-8 8-22 8-30 0-2-2-4-5-5-8-18-37-37-58-62-70-28-14-59-23-111-23-2 0-5-1-8-2-5-2-9-6-11-11-3-5-3-11 0-16 1-3 2-5 4-7l69-70-96-129 129 97 69-69c2-2 4-4 7-5 2-1 5-1 8-1 3 0 6 0 8 1 5 3 10 7 12 12 1 2 1 5 1 8 0 51 10 83 23 110 13 25 34 44 71 62 2 1 5 3 7 5 9 8 8 22 0 30z"/>
<glyph glyph-name="pinterest" unicode="&#57528;" d="M273 470c-122 0-184-87-184-160 0-44 17-83 53-98 6-3 11 0 13 6 1 5 4 16 5 21 2 6 1 9-4 14-10 12-17 28-17 51 0 65 49 123 127 123 69 0 107-42 107-99 0-74-33-136-82-136-27 0-47 22-40 49 7 33 22 68 22 91 0 21-11 39-34 39-28 0-50-29-50-67 0-24 8-40 8-40 0 0-28-119-33-140-9-42-1-93 0-98 0-3 4-4 6-1 2 3 35 43 46 84 3 11 18 70 18 70 9-17 35-32 63-32 82 0 138 76 138 176 0 77-64 147-162 147z"/>
<glyph glyph-name="pizza" unicode="&#57529;" d="M447 240c0-18-14-32-32-32-17 0-31 14-31 32 0 17 14 31 31 31 18 0 32-14 32-31m-148-69c0-12-9-21-21-21-12 0-21 9-21 21 0 12 9 21 21 21 12 0 21-9 21-21m-40-68c11 0 19-9 19-20 0-11-8-19-19-19-11 0-20 8-20 19 0 11 9 20 20 20m-23 323c0-18-14-32-32-32-17 0-31 14-31 32 0 17 14 31 31 31 18 0 32-14 32-31m-64-166c5 0 9-5 9-10 0-5-4-10-9-10-6 0-10 5-10 10 0 5 4 10 10 10m-10-108c0-16-13-30-30-30-16 0-29 14-29 30 0 16 13 29 29 29 17 0 30-13 30-29m-27 170c0-11-8-19-19-19-11 0-20 8-20 19 0 11 9 20 20 20 11 0 19-9 19-20m353 24l-224-90 91 229c-31 14-65 22-101 22-138 0-251-113-251-251 0-139 113-251 251-251 139 0 251 112 251 251 0 32-6 62-17 90m-64 79c0-11-9-20-21-20-11 0-20 9-20 20 0 12 9 21 20 21 12 0 21-9 21-21m-45-72c0-7-6-13-14-13-7 0-13 6-13 13 0 8 6 14 13 14 8 0 14-6 14-14m129 19c-23 61-70 110-129 136l-89-224z"/>
<glyph glyph-name="planet" unicode="&#57530;" d="M52 460c-30-30-19-94 22-166-3-12-4-25-4-38 0-103 83-186 186-186 13 0 26 1 38 4 72-41 136-52 166-22 30 30 19 94-22 166 3 12 4 25 4 38 0 103-83 186-186 186-13 0-26-1-38-4-72 41-136 52-166 22z m371-377c-112-36-395 286-338 344 14 13 42 7 77-10-16-10-30-21-42-34 40-98 166-224 265-261 13 12 24 26 32 41 15-31 19-60 6-80z"/>
<glyph glyph-name="play" unicode="&#57531;" d="M128 416l0-320 256 160z"/>
<glyph glyph-name="plugin" unicode="&#57532;" d="M319 473l-82-82-35 35c-9 9-23 9-32 0-9-9-9-23 0-32l5-5-40-40c-51-51-62-127-25-186l-66-67c-15-15-15-38 0-52 14-15 37-15 52 0l67 66c60-37 135-26 186 25l40 40 5-5c9-9 23-9 32 0 9 9 9 23 0 32l-40 40 87 87c9 9 9 23 0 32-9 9-24 9-33 0l-86-87-84 84 82 82c9 9 9 24 0 33-9 9-24 9-33 0z"/>
<glyph glyph-name="plus" unicode="&#57533;" d="M192 512l128 0 0-192 192 0 0-128-192 0 0-192-128 0 0 192-192 0 0 128 192 0z"/>
<glyph glyph-name="pointer" unicode="&#57534;" d="M0 337l256-80 81-257 175 512z"/>
<glyph glyph-name="power" unicode="&#57535;" d="M256 64c88 0 160 72 160 160 0 52-25 99-64 128l0 74c76-36 128-113 128-202 0-124-100-224-224-224-124 0-224 100-224 224 0 89 52 166 128 202l0-74c-39-29-64-76-64-128 0-88 72-160 160-160z m0 160c-18 0-32 14-32 32l0 192c0 18 14 32 32 32 18 0 32-14 32-32l0-192c0-18-14-32-32-32z"/>
<glyph glyph-name="pressure" unicode="&#57536;" d="M256 280c-31 0-56-25-56-56 0-31 25-56 56-56 31 0 56 25 56 56 0 4-1 8-2 12 41 48 104 122 138 164 12 14-1 28-16 16-43-35-116-97-163-138-4 1-9 2-13 2z m16 104c0 9-7 16-16 16-9 0-16-7-16-16 0-9 7-16 16-16 9 0 16 7 16 16z m96-128c0-9 7-16 16-16 9 0 16 7 16 16 0 9-7 16-16 16-9 0-16-7-16-16z m-176 128c-9 0-16-7-16-16 0-9 7-16 16-16 9 0 16 7 16 16 0 9-7 16-16 16z m-32-64c0 9-7 16-16 16-9 0-16-7-16-16 0-9 7-16 16-16 9 0 16 7 16 16z m-48-64c0-9 7-16 16-16 9 0 16 7 16 16 0 9-7 16-16 16-9 0-16-7-16-16z m224 112c0 9-7 16-16 16-9 0-16-7-16-16 0-9 7-16 16-16 9 0 16 7 16 16z m108-24l-34-45c4-14 6-28 6-43 0-88-72-160-160-160-88 0-160 72-160 160 0 88 72 160 160 160 33 0 64-10 89-27l40 30c-36 28-80 45-129 45-115 0-208-93-208-208 0-115 93-208 208-208 115 0 208 93 208 208 0 31-7 61-20 88z"/>
<glyph glyph-name="price" unicode="&#57537;" d="M494 502c-3 8-12 12-20 9-8-3-12-11-9-20 24-68-23-119-59-146l-14 21c-5 7-16 12-24 12l-81 0c-8 0-21-4-28-9l-238-168c-11-8-14-24-6-36l108-157c8-11 21-10 33-2l238 169c6 5 14 16 17 24l25 80c3 8 1 20-3 27l-9 13c48 37 97 103 70 183z m-111-240c-18-13-44-8-57 10-13 19-8 45 10 58 15 10 34 9 48-1-7-4-12-6-13-7-7-3-11-13-7-20 2-6 8-9 14-9 2 0 4 0 6 1 5 3 10 5 16 9 2-15-4-31-17-41z"/>
<glyph glyph-name="printer" unicode="&#57538;" d="M358 64l10 0 0 130c0 6-6 12-12 12l-200 0c-6 0-12-6-12-12l0-130 10 0c1 0 2 0 2 0l200 0c1 0 2 0 2 0z m66 317l-31 0 0 52c0 9-7 15-16 15l-242 0c-9 0-16-6-16-15l0-52-31 0c-28 0-56-27-56-55l0-120c0-28 28-62 56-62 0 0 14 0 19 0 4 0 5 0 5 14l0 43c0 19 15 32 33 32l224 0c18 0 31-21 31-40l0-35c0-14 0-14 5-14 5 0 19 0 19 0 28 0 56 26 56 54l0 128c0 28-28 55-56 55z m-24-61c-9 0-16 7-16 16 0 9 7 16 16 16 9 0 16-7 16-16 0-9-7-16-16-16z"/>
<glyph glyph-name="puzzle" unicode="&#57539;" d="M378 224c-7 5-14 9-22 10-4 1-9 2-14 1-4 0-8-1-12-1-4-1-7-2-10-4-9-4-17-9-23-15-6-6-11-14-15-23-2-3-3-6-4-9 0-5-1-9-1-13-1-5 0-10 1-14 1-8 5-15 10-22 2-3 4-5 6-7 10-10 23-16 38-17 4-1 9-1 13-3 2 0 4-2 6-3 3-3 4-8 1-14-1-3-4-6-6-9l-2-2c-2-2-3-3-3-3-2-2-3-3-5-5l-1-1c-6-5-11-11-16-16-11-11-23-23-34-34-4-4-8-8-12-11-1-2-3-4-5-5-1 0-2-1-3-1-9-5-20-3-29 6-3 2-5 5-8 8-15 15-30 30-45 45-5 4-9 8-13 13-3 3-7 6-10 8-3 2-6 4-9 5-10 4-21 1-27-7-2-2-4-5-5-8-2-5-2-10-3-15-2-18-13-34-28-41-4-2-8-3-12-4-4-1-8-1-12 0-13 0-24 6-34 16-1 1-1 1-1 1-10 10-16 21-16 34-1 4-1 8 0 12 1 4 2 8 4 12 7 15 23 26 41 28 5 1 10 1 15 3 3 1 6 3 9 5 7 7 10 17 6 26-1 4-3 7-5 10-2 3-5 7-8 10-5 4-9 8-13 12-14 14-27 27-40 41l-5 5c-3 3-6 5-8 8-9 9-11 20-6 29 0 1 1 2 1 3 1 2 3 4 5 5 3 4 7 8 11 12 11 11 23 22 34 34 5 5 11 10 16 16l1 1c2 2 3 3 5 5 0 0 1 1 3 3l2 2c3 2 6 5 9 6 6 3 11 2 14-1 1-2 3-4 3-6 2-4 2-9 3-13 1-15 7-28 17-38 2-2 4-4 7-6 7-5 14-9 22-10 4-1 9-2 14-1 4 0 8 1 13 1 3 1 6 2 9 4 9 4 17 9 23 15 6 6 11 14 15 23 2 3 3 6 4 9 0 5 1 9 1 13 1 5 0 10-1 14-1 8-5 15-10 22-2 3-4 5-6 7-10 10-23 16-38 17-4 1-9 1-13 3-2 0-4 2-6 3-3 3-4 8-1 14 1 3 4 6 6 9l2 2c2 2 3 3 3 3 2 2 3 3 5 5l1 1c6 5 11 11 16 16 12 11 23 23 34 34 4 4 8 8 12 11 1 2 3 4 5 5 1 0 2 1 3 1 9 5 20 3 29-6 3-2 5-5 8-8 15-15 30-30 45-45 5-4 9-8 13-13 3-3 7-6 10-8 3-2 6-4 9-5 10-4 21-1 27 7 2 2 4 5 5 8 2 5 2 10 3 15 2 18 13 34 28 41 4 2 8 3 12 4 4 1 8 1 12 0 13 0 24-6 34-16 1-1 1-1 1-1 10-10 16-21 16-34 1-4 1-8 0-12-1-4-2-8-4-12-7-15-23-26-41-28-5-1-10-1-15-3-3-1-6-3-9-5-7-7-10-17-6-26 1-4 3-7 5-10 2-3 5-7 8-10 5-4 9-8 13-13 15-15 30-30 46-45 2-3 5-5 7-8 9-9 11-20 6-29 0-1-1-2-1-3-1-2-3-4-5-5-3-4-7-8-11-12-11-11-23-22-34-34-5-5-11-10-16-16l-1-1c-2-2-3-3-5-5 0 0-1-1-3-3l-2-2c-3-2-6-5-9-6-6-3-11-2-14 1-1 2-3 4-3 6-2 4-2 9-3 13-1 15-7 28-17 38-2 2-4 4-7 6z"/>
<glyph glyph-name="quote" unicode="&#57540;" d="M38 85c0-20 17-37 37-37l121 0c21 0 37 17 37 37l0 149c0 21-16 38-37 38l-60 0c-10 0-18 8-18 18 0 3 1 6 1 6 13 45 47 81 91 97l1 0c13 6 22 19 22 34 0 21-16 38-37 38-5 0-10-1-14-3l-2-1c-83-32-142-113-142-208z m242 0c0-20 16-37 37-37l121 0c20 0 37 17 37 37l0 149c0 21-17 38-37 38l-60 0c-10 0-18 8-18 18 0 4 0 6 0 6 14 45 48 81 92 97l1 0c13 6 22 19 22 34 0 21-17 38-37 38-5 0-10-1-14-3l-2-1c-83-32-142-113-142-208z"/>
<glyph glyph-name="receipt" unicode="&#57541;" d="M384 149l-256 0 0 43 256 0z m0 86l-256 0 0 42 256 0z m0 85l-256 0 0 43 256 0z m-320-277l32 32 32-32 32 32 32-32 32 32 32-32 32 32 32-32 32 32 32-32 32 32 32-32 0 426-32-32-32 32-32-32-32 32-32-32-32 32-32-32-32 32-32-32-32 32-32-32-32 32z"/>
<glyph glyph-name="recipient" unicode="&#57542;" d="M416 416l-320 0-32-192 0-128 384 0 0 128z m-64-192l-32-64-128 0-32 64-56 0 24 160 256 0 25-160z"/>
<glyph glyph-name="record" unicode="&#57543;" d="M256 48c115 0 208 93 208 208 0 115-93 208-208 208-115 0-208-93-208-208 0-115 93-208 208-208z"/>
<glyph glyph-name="reddit" unicode="&#57544;" d="M481 261c0 28-23 50-50 50-13 0-25-5-34-13-32 23-76 38-124 40l21 74 68-14c2-23 21-40 44-40 0 0 0 0 0 0 0 0 0 0 0 0 25 0 45 20 45 45 0 25-20 45-45 45 0 0 0 0 0 0 0 0 0 0 0 0-17 0-32-10-40-24l-89 18-31-103-3 0c-50-3-95-18-128-41-9 8-21 13-34 13-27 0-49-22-49-50 0-20 11-37 27-45-1-5-2-10-2-15 1-75 89-137 199-137 110 0 199 62 199 137 0 5-1 10-2 15 17 9 28 25 28 45z m-415-20c-7 4-11 12-11 21 0 13 11 25 25 25 5 0 10-2 15-5-14-12-24-26-29-41z m323 162c0 9 8 17 17 17 9 0 16-8 16-17 0-9-7-17-16-17-9 0-17 8-17 17z m-230-179c0 17 14 31 31 31 18 0 32-14 32-31 0-18-14-32-32-32-17 0-31 14-31 32z m97-112c-48 0-76 28-77 30l12 12c1 0 24-24 65-24 40 0 64 24 65 24l12-12c-1-2-29-30-77-30z m66 80c-17 0-31 14-31 32 0 17 14 31 31 31 18 0 32-14 32-31 0-18-14-32-32-32z m124 48c-5 16-15 30-29 42 4 3 10 5 15 5 14 0 25-11 25-25 1-9-4-17-11-22z"/>
<glyph glyph-name="reminder" unicode="&#57545;" d="M370 233c30 30 49 70 49 116 0 91-72 163-163 163-91 0-163-72-163-163 0-46 19-86 49-116l81-82-107-107 33-32z m-33 35l-81-84-81 81c-21 24-35 52-35 84 0 65 51 116 116 116 65 0 116-51 116-116 0-32-14-60-35-81z m-48-182l74-74 33 32-75 75z"/>
<glyph glyph-name="restaurant" unicode="&#57546;" d="M250 389c-28-27-22-63-31-98l-154 156c-4 3-8 6-14 6-10 0-18-9-18-19l0-6c0-56 24-160 99-243l-88-89c-15-15-15-38 0-52 14-15 37-15 52 0l88 88 53-53 46 42 77-77c15-15 38-15 53 0 14 14 14 37 0 52l-123 123c36 10 72 3 99 31l83 83c10 9 10 24 0 33-9 9-24 9-33 0l-73-73c-6-6-14-6-20 0-6 5-6 14 0 20l73 73c9 9 9 24 0 33-9 9-24 9-33 0l-73-73c-6-6-15-6-20 0-6 6-6 14 0 20l73 73c9 9 9 24 0 33-9 10-24 10-33 0z"/>
<glyph glyph-name="retweet" unicode="&#57547;" d="M127 174l0 134 52 0-89 102-90-102 52 0 0-154c0-29 23-52 51-52l230 0-66 72z m333 30l0 154c0 29-23 52-51 52l-230 0 66-72 140 0 0-134-52 0 89-102 90 102z"/>
<glyph glyph-name="rewind" unicode="&#57548;" d="M256 384l-224-128 224-128 0 123 224-123 0 256-224-123z"/>
<glyph glyph-name="go-right" unicode="&#57549;" d="M160 448l192-192-192-192z"/>
<glyph glyph-name="go-forward-double" unicode="&#57550;" d="M512 256l-192 160 0-27 160-133-160-133 0-27z m-64 0l-192 160 0-99c-113-10-202-54-256-189 79 66 159 89 256 76l0-108z"/>
<glyph glyph-name="rocket" unicode="&#57551;" d="M358 450c-36-21-74-48-109-83-22-23-40-45-55-65l-89-17-105-105 93-2 66 65c-23-48-25-80-25-80l29-29c0 0 33 3 82 27l-67-68 2-93 105 105 17 89c21 15 42 33 65 55 35 35 62 73 83 109-23 5-44 15-61 31-16 17-26 38-31 61z m35 19c3-23 10-41 22-53 13-13 31-20 54-23 33 67 43 119 43 119 0 0-52-10-119-43z"/>
<glyph glyph-name="rss" unicode="&#57552;" d="M120 176c-31 0-56-25-56-56 0-31 25-56 56-56 31 0 56 25 56 56 0 31-25 56-56 56z m-56 144l0-80c48 0 94-14 128-48 34-34 48-80 48-128l80 0c0 140-116 256-256 256z m0 128l0-80c171 0 304-133 304-304l80 0c0 212-172 384-384 384z"/>
<glyph glyph-name="safari" unicode="&#57553;" d="M251 451c-9 0-18-1-27-2 0 3-1 5-2 6 4 5 7 11 7 18 0 15-13 27-29 27-16 0-30-12-30-27 0-12 9-22 20-25 0-1 0-2 0-3 0-1 0-2 0-2-92-27-160-112-160-213 0-122 99-221 221-221 122 0 221 99 221 221 0 122-99 221-221 221z m-74 22c0 11 10 21 23 21 12 0 22-10 22-21 0-5-2-10-5-13-3 1-6 2-9 2-7 0-12-3-15-8-9 2-16 10-16 19z m74-429c-103 0-186 83-186 186 0 103 83 186 186 186 103 0 186-83 186-186 0-103-83-186-186-186z m130 107l12-7c16 25 24 55 24 86 0 11-1 22-3 33l-13-3c-2-1-3 0-4 2 0 2 1 3 3 4l13 3c-10 41-35 76-69 99l-8-14c-1-1-3-1-4-1-2 1-2 3-1 5l8 13c-25 16-55 25-88 25-10 0-21-1-31-3l3-15c1-2 0-3-2-4-1 0-3 1-3 3l-4 15c-41-9-77-34-100-69l13-8c2-1 2-3 1-4-1-2-3-2-4-1l-14 8c-16-25-25-55-25-88 0-11 1-22 3-32l16 3c2 1 3 0 4-2 0-2-1-3-3-3l-16-4c10-42 36-78 71-101l9 16c1 1 3 2 4 1 2-1 2-3 1-4l-9-16c25-15 54-24 86-24 12 0 23 1 34 3l-3 16c-1 2 0 3 2 4 1 0 3-1 3-3l4-15c41 10 76 35 99 70l-12 7c-2 1-2 3-1 5 1 1 3 1 4 0z m-197 126l31-11c4 4 9 8 15 11l0 61 27-57c2 0 4-1 6-1l-5-4c-2 0-4 0-7 0-25 0-46-20-46-46 0-5 1-10 3-15l-4-5c0 0 0 0 0 0l-60 0 57 27c0 6 2 12 5 18z m-32-168l81 135 0 1 1 0 114 108-81-136-1-1 0 0z m169 78l-30 11c-4-5-9-9-14-12l0 0-1-63-25 56c-4 0-9 1-13 2l5 4c2-1 5-1 8-1 26 0 46 21 46 46 0 7-1 14-4 20l3 5c0 0 0 0 0 0l62-1-56-25c0-7-1-13-4-19z m-70 57c-8 0-14-7-14-14 0-8 7-14 15-14 8 0 14 7 14 15-1 8-7 14-15 13z"/>
<glyph glyph-name="sea" unicode="&#57554;" d="M47 360c49 42 89 76 195 16 51-29 93-40 127-40 60 0 99 33 133 62 12 11 13 29 3 41-10 13-28 14-40 4-49-43-89-77-195-16-141 79-207 23-260-23-12-10-13-29-3-41 10-12 28-14 40-3z m418-62c-49-43-89-77-195-17-141 80-207 23-260-22-12-11-13-29-3-41 10-12 28-14 40-4 49 43 89 77 195 17 51-29 93-40 127-40 60 0 99 33 133 62 12 11 13 29 3 41-10 12-28 14-40 4z m0-146c-49-42-89-76-195-16-141 80-207 23-260-22-12-11-13-29-3-41 10-13 28-14 40-4 49 43 89 76 195 16 51-29 93-39 127-39 60 0 99 33 133 62 12 10 13 29 3 41-10 12-28 14-40 3z"/>
<glyph glyph-name="settings" unicode="&#57556;" d="M64 64l64 0 0 96-64 0z m64 384l-64 0 0-160 64 0z m160 0l-64 0 0-64 64 0z m-256-256l128 0 0 64-128 0z m192-128l64 0 0 192-64 0z m-32 224l128 0 0 64-128 0z m256 160l-64 0 0-192 64 0z m-96-224l0-64 128 0 0 64z m32-160l64 0 0 64-64 0z"/>
<glyph glyph-name="shell" unicode="&#57558;" d="M448 448l-384 0c-18 0-32-14-32-32l0-320c0-17 14-32 32-32l384 0c17 0 32 15 32 32l0 320c0 18-15 32-32 32z m-352-224l64 64-64 64 32 32 96-96-96-96z m256-32l-128 0 0 32 128 0z"/>
<glyph glyph-name="shuffle" unicode="&#57559;" d="M370 331l29 0 0-48 81 84-81 81 0-54-29 0c-83 0-129-62-170-117-37-49-69-95-121-95l-47 0 0-63 47 0c83 0 129 66 171 120 37 49 68 92 120 92z m-217-37c4 5 7 10 11 15 9 11 18 23 28 36-30 28-65 48-113 48l-47 0 0-63c0 0 13 0 47 0 32-1 53-14 74-36z m246-112l-29 0c-31 0-56 15-78 39-2-3-5-6-7-9-10-13-20-27-32-41 30-30 67-53 117-53l29 0 0-54 81 81-81 84z"/>
<glyph glyph-name="signal" unicode="&#57560;" d="M103 39l0 58c0 16-12 29-27 29-15 0-27-13-27-29l0-58c0-16 12-29 27-29 15 0 27 13 27 29m90 0l0 155c0 16-12 29-27 29-15 0-27-13-27-29l0-155c0-16 12-29 27-29 15 0 27 13 27 29m89 0l0 251c0 16-12 29-26 29-15 0-27-13-27-29l0-251c0-16 12-29 27-29 14 0 26 13 26 29m90 0l0 348c0 16-12 29-27 29-15 0-27-13-27-29l0-348c0-16 12-29 27-29 15 0 27 13 27 29m90 0l0 444c0 16-12 29-27 29-15 0-27-13-27-29l0-444c0-16 12-29 27-29 15 0 27 13 27 29"/>
<glyph glyph-name="size" unicode="&#57561;" d="M192 427l0-64 107 0 0-256 64 0 0 256 106 0 0 64z m-128-171l64 0 0-149 64 0 0 149 64 0 0 64-192 0z"/>
<glyph glyph-name="skip-backward" unicode="&#57562;" d="M76 416l8 0c7 0 12-5 12-12l0-113 187 122c3 2 5 3 8 3 9 0 16-7 16-17l0-64 118 79c3 1 5 2 8 2 9 0 15-7 15-17l0-286c0-10-7-17-15-17-3 0-5 1-8 3l-118 78 0-64c0-10-8-17-16-17-3 0-5 1-8 3l-187 122 0-113c0-7-5-12-12-12l-8 0c-7 0-12 5-12 12l0 296c0 7 5 12 12 12z"/>
<glyph glyph-name="skip-forward" unicode="&#57563;" d="M436 416l-8 0c-6 0-12-5-12-12l0-113-187 122c-3 2-5 3-8 3-8 0-16-7-16-17l0-64-118 79c-3 1-5 2-8 2-8 0-15-7-15-17l0-286c0-10 7-17 15-17 3 0 5 1 8 3l118 78 0-64c0-10 8-17 16-17 3 0 5 1 8 3l187 122 0-113c0-7 5-12 12-12l8 0c7 0 12 5 12 12l0 296c0 7-5 12-12 12z"/>
<glyph glyph-name="skype" unicode="&#57564;" d="M437 215c3 13 4 26 4 39 0 100-82 180-183 180-11 0-21 0-31-2-17 10-36 16-57 16-58 0-106-47-106-105 0-19 5-37 15-53-3-11-4-24-4-36 0-100 82-181 183-181 12 0 23 1 34 3 15-8 32-12 50-12 58 0 106 47 106 105 0 16-4 32-11 46z m-85-47c-9-12-21-22-37-28-16-7-36-10-58-10-26 0-48 5-65 14-12 6-23 15-30 26-8 11-12 22-12 33 0 6 3 12 8 17 5 4 11 7 19 7 6 0 11-2 16-6 4-3 8-9 10-15 4-8 7-14 11-19 4-4 9-8 15-11 7-4 16-5 27-5 15 0 27 3 37 9 9 6 13 14 13 23 0 7-2 13-7 17-5 5-11 8-19 11-9 2-20 5-34 8-19 4-35 9-48 14-13 5-24 13-31 23-8 9-12 22-12 36 0 14 4 26 12 36 8 11 20 19 36 25 15 5 33 8 53 8 17 0 31-2 43-5 12-4 22-9 30-15 8-7 14-13 18-20 4-7 6-14 6-21 0-6-3-12-8-17-5-5-11-8-18-8-7 0-12 2-16 5-4 3-7 8-11 14-5 9-10 16-16 20-7 5-17 7-31 7-13 0-24-2-32-7-7-5-11-11-11-18 0-4 1-7 4-10 2-3 6-6 11-8 4-3 9-5 14-6 5-1 14-3 26-6 14-3 28-7 40-10 12-4 23-9 31-15 9-5 16-12 21-21 5-9 7-19 7-32 1-15-3-29-12-40z"/>
<glyph glyph-name="smartphone" unicode="&#57565;" d="M328 448l-144 0c-13 0-24-11-24-24l0-336c0-13 11-24 24-24l144 0c13 0 24 11 24 24l0 336c0 13-11 24-24 24z m-88-36c0 2 2 4 4 4l24 0c2 0 4-2 4-4l0 0c0-2-2-4-4-4l-24 0c-2 0-4 2-4 4z m-12 4c2 0 4-2 4-4 0-2-2-4-4-4-2 0-4 2-4 4 0 2 2 4 4 4z m28-336c-9 0-16 7-16 16 0 9 7 16 16 16 9 0 16-7 16-16 0-9-7-16-16-16z m80 48l-160 0 0 256 160 0z"/>
<glyph glyph-name="soundcloud" unicode="&#57566;" d="M17 169l9 36-9 37c0 1-2 2-5 2-2 0-4-1-5-2l-7-37 7-36c1-1 3-2 5-2 3 0 5 1 5 2z m53-20l7 55-7 86c-1 2-3 4-6 4-4 0-6-2-6-4l-7-86 7-55c0-2 2-4 6-4 3 0 5 2 6 4z m52 1l6 54-6 114c0 3-3 5-7 5-4 0-7-2-7-5l-6-114 6-54c0-3 3-5 7-5 4 0 7 2 7 5z m52 1l5 53-5 115c0 3-3 6-8 6-4 0-8-3-8-6l-4-115 4-53c0-4 4-6 8-6 5 0 8 2 8 6z m53 0l3 53-3 132c-1 4-5 7-10 7-5 0-9-3-9-7l-3-132c0 0 3-53 3-53 0-3 4-6 9-6 5 0 9 3 10 6z m36-6c0 0 182 0 183 0 36 0 66 28 66 63 0 36-30 64-66 64-9 0-18-2-25-5-6 58-56 103-116 103-15 0-30-3-43-8-5-2-6-3-6-7l0-203c0-4 3-7 7-7z"/>
<glyph glyph-name="speaker" unicode="&#57567;" d="M363 469l-214 0c-23 0-42-19-42-42l0-342c0-23 19-42 42-42l214 0c23 0 42 19 42 42l0 342c0 23-19 42-42 42z m-107-42c24 0 43-19 43-43 0-24-19-43-43-43-24 0-43 19-43 43 0 24 19 43 43 43z m0-342c-59 0-107 48-107 107 0 59 48 107 107 107 59 0 107-48 107-107 0-59-48-107-107-107z m0 171c-35 0-64-29-64-64 0-35 29-64 64-64 35 0 64 29 64 64 0 35-29 64-64 64z"/>
<glyph glyph-name="spellcheck" unicode="&#57568;" d="M265 171l45 0-109 277-39 0-109-277 44 0 24 64 121 0z m-128 106l44 118 44-118z m323-12l-172-173-78 79-30-31 108-108 203 203z"/>
<glyph glyph-name="squirrel" unicode="&#57569;" d="M384 480c-71 0-128-42-128-93 0-62 16-98 0-195 0 144-88 203-128 203 2 16-15 21-15 21 0 0-7-4-10-11-9 10-18 9-18 9l-4-19c0 0-59-20-60-103 7-11 50-19 80-14 29-1 21-25 15-31-27-27-52 9-84 9-32 0-32-32 0-32 32 0 32-32 96-32-99-39 0-128 0-128l-32 0c-32 0-32-32-32-32 0 0 128 0 192 0 96 0 160 32 160 111 0 27-14 57-32 81-35 47 7 86 32 64 25-22 96-32 96 64 0 71-57 128-128 128z m-304-160c-9 0-16 7-16 16 0 9 7 16 16 16 9 0 16-7 16-16 0-9-7-16-16-16z"/>
<glyph glyph-name="stack" unicode="&#57570;" d="M71 347l169-81c4-2 10-3 16-3 6 0 12 1 16 3l169 81c9 5 9 12 0 16l-169 82c-4 2-10 3-16 3-6 0-12-1-16-3l-169-82c-9-4-9-11 0-16z m370-83c0 0-31 15-35 17-4 2-5 2-9 0-4-2-125-61-125-61-4-2-10-3-16-3-6 0-12 1-16 3 0 0-117 57-123 60-6 3-8 3-13 0-6-3-33-16-33-16-9-4-9-11 0-16l169-81c4-3 10-4 16-4 6 0 12 1 16 4l169 81c9 4 9 11 0 16z m0-100c0 0-31 15-35 17-4 2-5 2-9 0-4-2-125-60-125-60-4-2-10-3-16-3-6 0-12 1-16 3 0 0-117 57-123 59-6 3-8 3-13 1-6-3-33-17-33-17-9-4-9-11 0-15l169-82c4-2 10-3 16-3 6 0 12 1 16 3l169 82c9 4 9 11 0 15z"/>
<glyph glyph-name="star" unicode="&#57571;" d="M256 470c-8 0-15-6-17-13l-44-136-144 0c-10 0-18-9-18-19 0-6 3-11 7-14 3-2 117-85 117-85 0 0-44-134-45-137 0-1-1-4-1-6 0-10 8-18 18-18 4 0 8 1 11 3l116 85c0 0 114-83 116-85 3-2 7-3 11-3 10 0 18 8 18 18 0 2-1 5-1 6-1 3-45 137-45 137 0 0 114 83 117 85 4 3 7 8 7 15 0 9-7 18-17 18l-145 0-44 136c-2 7-9 13-17 13z"/>
<glyph glyph-name="stop" unicode="&#57572;" d="M437 448l-362 0c-6 0-11-5-11-11l0-362c0-6 5-11 11-11l362 0c6 0 11 5 11 11l0 362c0 6-5 11-11 11z"/>
<glyph glyph-name="stopwatch" unicode="&#57573;" d="M398 365l-2 2 18 0 9-8 22 23-41 40-23-22 9-9 0-19-5 5c-31 28-70 45-113 49l0 38-32 0 0-38-2 0c-44-3-85-23-116-53l0 18 9 9-23 22-41-40 23-23 8 8 18 0c0 0-1-1-1-1-33-35-51-81-51-129 0-104 86-189 192-189 106 0 192 85 192 189 0 48-18 93-50 128z m-134-171l-8-18-8 18c-14 3-24 16-24 30 0 14 12 26 24 31l0 129 16 0 0-129c14-4 24-16 24-31 0-14-10-27-24-30z"/>
<glyph glyph-name="storage" unicode="&#57574;" d="M43 85l426 0 0 86-426 0z m42 64l43 0 0-42-43 0z m-42 278l0-86 426 0 0 86z m85-64l-43 0 0 42 43 0z m-85-150l426 0 0 86-426 0z m42 64l43 0 0-42-43 0z"/>
<glyph glyph-name="store" unicode="&#57575;" d="M427 427l-342 0 0-43 342 0z m21-214l0 43-21 107-342 0-21-107 0-43 21 0 0-128 214 0 0 128 85 0 0-128 43 0 0 128z m-192-85l-128 0 0 85 128 0z"/>
<glyph glyph-name="strikethrough" unicode="&#57576;" d="M213 107l86 0 0 64-86 0z m-106 320l0-64 106 0 0-64 86 0 0 64 106 0 0 64z m-43-214l384 0 0 43-384 0z"/>
<glyph glyph-name="stumbleupon" unicode="&#57577;" d="M176 157c12 0 23 8 23 18 0 10-10 19-22 19l-12 1c-34 2-61 30-61 62 0 34 28 61 62 61l83 0c35 0 62-28 62-62l0-77c0-12 10-22 22-22l10 0c12 0 22 10 22 22l0 257c-33 19-70 30-110 30-123 0-222-99-222-222 0-31 7-60 18-87l125 0z m229 250l0-228c0-35-28-62-62-62l-10 0c-34 0-62 27-62 62l0 77c0 12-9 22-21 22l-84 0c-12 0-22-10-22-21 0-11 10-21 23-22l12-1c34-1 61-29 60-60-1-32-29-57-63-57l-102 0c40-57 106-94 181-94 122 0 221 99 221 222 0 64-27 121-71 162z"/>
<glyph glyph-name="suitcase" unicode="&#57578;" d="M461 410l-26 0 0-384 26 0c28 0 51 23 51 51l0 281c0 29-23 52-51 52z m-461-52l0-281c0-28 23-51 51-51l26 0 0 384-26 0c-28 0-51-23-51-52z m343 105c-17 8-45 23-87 23-42 0-70-15-87-23l0-53-56 0 0-384 286 0 0 384-56 0z m-31-53l-112 0 0 34c13 6 33 12 56 12 23 0 43-6 56-12z"/>
<glyph glyph-name="sum" unicode="&#57579;" d="M384 427l-256 0 0-43 139-128-139-128 0-43 256 0 0 64-149 0 106 107-106 107 149 0z"/>
<glyph glyph-name="sync" unicode="&#57580;" d="M392 275c6-41-7-84-39-115-47-47-119-52-173-17l38 36-138 19 19-134 42 40c76-55 183-50 251 18 40 39 58 91 56 142z m-233 77c47 46 119 52 173 17l-38-36 138-19-19 134-42-40c-76 55-183 50-251-18-40-39-58-91-56-142l56-11c-6 41 7 84 39 115z"/>
<glyph glyph-name="tablet" unicode="&#57581;" d="M112 439l0-366c0-5 4-9 9-9l270 0c5 0 9 4 9 9l0 366c0 5-4 9-9 9l-270 0c-5 0-9-4-9-9z m144-365c-7 0-14 6-14 14 0 7 7 13 14 13 7 0 14-6 14-13 0-8-6-14-14-14z m-112 319c0 4 3 7 6 7l211 0c4 0 7-3 7-7l0-275c0-3-3-6-7-6l-211 0c-3 0-6 3-6 6z"/>
<glyph glyph-name="target" unicode="&#57582;" d="M256 384c-72 0-128-56-128-128 0-72 56-128 128-128 72 0 128 56 128 128 0 72-56 128-128 128z m0 128c-141 0-256-115-256-256 0-141 115-256 256-256 141 0 256 115 256 256 0 141-115 256-256 256z m0-461c-113 0-205 92-205 205 0 113 92 205 205 205 113 0 205-92 205-205 0-113-92-205-205-205z"/>
<glyph glyph-name="technorati" unicode="&#57583;" d="M388 455l-262 0c-47-38-77-90-77-149 0-55 25-104 66-140l-12-125 115 70c23-7 47-10 73-10 74 0 140 28 184 73l0 193c0 49-39 88-87 88z m-97-268c-84 0-156 54-156 119 0 64 72 119 156 119 85 0 156-55 156-119 0-65-71-119-156-119z"/>
<glyph glyph-name="telephone" unicode="&#57584;" d="M0 256c3-175 23-175 23-175l24 0 0 350-24 0c0 0-26 0-23-175z m512 0c0-175-29-175-29-175l-250 0 0 350 250 0c0 0 29 0 29-175z m-93-128c13 0 23 10 23 23 0 13-10 24-23 24-13 0-23-11-23-24 0-13 10-23 23-23z m-70 0c13 0 23 10 23 23 0 13-10 24-23 24-13 0-23-11-23-24 0-13 10-23 23-23z m-70 0c13 0 24 10 24 23 0 13-11 24-24 24-13 0-23-11-23-24 0-13 10-23 23-23z m140 70c13 0 23 10 23 23 0 13-10 23-23 23-13 0-23-10-23-23 0-13 10-23 23-23z m-70 0c13 0 23 10 23 23 0 13-10 23-23 23-13 0-23-10-23-23 0-13 10-23 23-23z m-70 0c13 0 24 10 24 23 0 13-11 23-24 23-13 0-23-10-23-23 0-13 10-23 23-23z m163 93c0 13-10 23-23 23-13 0-23-10-23-23 0-13 10-23 23-23 13 0 23 10 23 23z m-93-23c13 0 23 10 23 23 0 13-10 23-23 23-13 0-23-10-23-23 0-13 10-23 23-23z m-70 0c13 0 24 10 24 23 0 13-11 23-24 23-13 0-23-10-23-23 0-13 10-23 23-23z m-19 116c-2 0-4-2-4-4l0-39c0-2 2-4 4-4l178 0c2 0 4 2 4 4l0 39c0 2-2 4-4 4z m-152 70c0 0-38 0-38-32l0-332c0-32 38-32 38-32l63 0c0 0 38 0 38 32l0 332c0 32-38 32-38 32z"/>
<glyph glyph-name="temple" unicode="&#57585;" d="M90 71c5 0 10 4 10 10l0 172c0 5-5 10-10 10l-38 0c-6 0-10-5-10-10l0-172c0-6 4-10 10-10z m406-17l-480 0c-5 0-10-4-10-10l0-26c0-5 5-10 10-10l480 0c6 0 10 5 10 10l0 26c0 6-4 10-10 10z m-282 17c5 0 10 4 10 10l0 172c0 5-5 10-10 10l-39 0c-5 0-10-5-10-10l0-172c0-6 5-10 10-10z m247 0c6 0 10 4 10 10l0 172c0 5-4 10-10 10l-38 0c-6 0-10-5-10-10l0-172c0-6 4-10 10-10z m38 248l-204 169c-21 17-56 17-77 0l-205-169c-21-18-16-32 12-32l463 0c27 0 32 14 11 32z m-243 9c-21 0-39 18-39 39 0 21 18 39 39 39 22 0 39-18 39-39 0-21-17-39-39-39z m81-257c6 0 10 4 10 10l0 172c0 5-4 10-10 10l-38 0c-5 0-10-5-10-10l0-172c0-6 5-10 10-10z"/>
<glyph glyph-name="thermometer" unicode="&#57586;" d="M256 32c35 0 64 29 64 64 0 24-13 44-32 55l0 297c0 18-14 32-32 32-18 0-32-14-32-32l0-297c-19-11-32-31-32-55 0-35 29-64 64-64z m0 16c-27 0-48 21-48 48 0 21 13 39 32 45l0 243c0 9 7 16 16 16 9 0 16-7 16-16l0-243c19-6 32-24 32-45 0-27-21-48-48-48z m0-48c-53 0-96 43-96 96 0 28 12 54 32 72l0 280c0 35 29 64 64 64 35 0 64-29 64-64l0-280c20-18 32-44 32-72 0-53-43-96-96-96z"/>
<glyph glyph-name="timer" unicode="&#57587;" d="M256 464c-115 0-208-93-208-208 0-115 93-208 208-208 115 0 208 93 208 208 0 115-93 208-208 208z m-105-103c2 3 119-84 119-84 1-1 2-2 3-3 5-4 8-11 8-18 0-14-11-25-25-25-8 0-15 4-19 10-1 0-1 0-1 1 0 0-88 117-85 119z m105-296c-106 0-191 85-191 191 0 53 21 101 56 135l12-11c-32-32-52-76-52-124 0-96 79-175 175-175 96 0 175 79 175 175 0 90-71 165-159 174l0-78-16 0 0 96c106 0 192-86 192-192 0-106-86-191-192-191z"/>
<glyph glyph-name="tools" unicode="&#57588;" d="M143 279c9-8 41-42 41-42l18 18-28 30 54 57c0 0-24 24-14 14 11 38 1 81-28 110-28 30-69 40-105 30l62-64-17-63-60-17-62 64c-10-38-1-79 28-109 30-31 73-40 111-28z m206-62l-74-73 123-128c10-10 23-15 36-15 13 0 27 5 37 15 20 21 20 55 0 76z m163 214l-78 81-231-239 28-29-138-143-32-16-44-73 11-12 70 46 17 33 138 143 28-30z"/>
<glyph glyph-name="traffic-lights" unicode="&#57589;" d="M427 299l-64 0 0 24c36 9 64 43 64 82l-64 0 0 22c0 11-10 21-22 21l-170 0c-12 0-22 10-22-21l0-22-64 0c0-39 28-73 64-82l0-24-64 0c0-40 28-73 64-83l0-24-64 0c0-40 28-73 64-82l0-25c0-11 96-21 22-21l170 0c12 0 22 10 22 21l0 25c36 9 64 42 64 82l-64 0 0 24c36 10 64 43 64 83z m-171-192c-24 0-43 19-43 42 0 24 19 43 43 43 24 0 43-19 43-43 0-23-19-42-43-42z m0 106c-24 0-43 19-43 43 0 24 19 43 43 43 24 0 43-19 43-43 0-24-19-43-43-43z m0 107c-24 0-43 19-43 43 0 23 19 42 43 42 24 0 43-19 43-42 0-24-19-43-43-43z"/>
<glyph glyph-name="trees" unicode="&#57590;" d="M105 61l48 0 0 44-48 0z m253 0l48 0 0 44-48 0z m-310 243l24 0-56-81 47 0-63-97 105 0 0-8 63 102-54 0 64 96-27 0 25 42-47 75z m287 54l25-42-27 0 64-96-54 0 63-102 0 8 105 0-63 97 47 0-56 81 24 0-81 129z m-170-34l28 0-64-97 53 0-71-115 118 0 0-77 54 0 0 77 118 0-71 115 53 0-64 97 28 0-91 154z"/>
<glyph glyph-name="trend-down" unicode="&#57591;" d="M341 128l49 49-104 104-85-85-158 158 30 30 128-128 85 85 134-134 49 49 0-128z"/>
<glyph glyph-name="trend-up" unicode="&#57592;" d="M341 384l49-49-104-104-85 85-158-158 30-30 128 128 85-85 134 134 49-49 0 128z"/>
<glyph glyph-name="tumblr" unicode="&#57593;" d="M321 116c-12 0-22 2-31 8-7 4-12 10-14 16-3 7-4 23-4 47l0 101 96 0 0 64-96 0 0 112-62 0c-2-22-7-45-14-59-7-14-14-25-26-35-11-10-25-18-42-24l0-58 48 0 0-140c0-19 2-34 6-44 4-10 11-19 22-28 10-9 22-16 37-21 14-5 31-7 50-7 17 0 31 2 45 5 14 3 30 9 48 18l0 65c-21-13-42-20-63-20z"/>
<glyph glyph-name="twitter" unicode="&#57594;" d="M492 402c-17-7-36-12-56-15 20 12 36 31 43 54-19-11-39-19-61-24-18 19-43 31-71 31-54 0-97-43-97-97 0-8 1-15 3-22-81 4-152 43-200 101-8-14-13-31-13-48 0-34 17-64 43-81-16 0-31 5-44 12 0 0 0-1 0-1 0-47 33-86 78-95-8-2-17-4-26-4-6 0-12 1-18 2 12-38 48-66 91-67-34-26-75-42-121-42-8 0-15 1-23 2 43-28 94-44 148-44 179 0 276 148 276 276 0 4 0 8 0 12 19 14 35 31 48 50z"/>
<glyph glyph-name="umbrella" unicode="&#57595;" d="M233 456l0-15c-102-11-184-92-195-194l0 0c0-11 8-19 19-19l176 0 0-126c0-38 32-69 70-69 39 0 70 31 70 69 0 13-11 24-23 24-13 0-24-11-24-24 0-12-10-23-23-23-13 0-23 11-23 23l0 126 176 0c10 0 19 8 19 18 0 0 0 1 0 1-11 102-93 183-195 194l0 15c0 13-11 23-23 23-13 0-24-10-24-23z"/>
<glyph glyph-name="underline" unicode="&#57596;" d="M256 149c71 0 128 58 128 128l0 171-53 0 0-171c0-41-34-74-75-74-41 0-75 33-75 74l0 171-53 0 0-171c0-70 57-128 128-128z m-149-42l0-43 298 0 0 43z"/>
<glyph glyph-name="unlocked" unicode="&#57597;" d="M86 32l340 0c12 0 22 10 22 22l0 212c0 12-10 22-22 22l-265 0 0 31c0 27 10 61 28 80l0 0c18 19 42 30 67 30l0 0c25 0 49-11 67-30l0 0c11-12 19-29 24-47l53 0c-6 31-19 62-39 82-26 28-64 46-105 46 0 0 0 0 0 0 0 0 0 0 0 0-41 0-79-18-105-46-27-27-43-74-43-115l0-31-22 0c-12 0-22-10-22-22l0-212c0-12 10-22 22-22z"/>
<glyph glyph-name="unordered-list" unicode="&#57598;" d="M64 224l64 0 0 64-64 0z m0 128l64 0 0 64-64 0z m0-256l64 0 0 64-64 0z m128 128l256 0 0 64-256 0z m0 128l256 0 0 64-256 0z m0-256l256 0 0 64-256 0z"/>
<glyph glyph-name="go-up" unicode="&#57599;" d="M256 384l-192-192 384 0z"/>
<glyph glyph-name="upload" unicode="&#57600;" d="M107 427l0-43 298 0 0 43z m0-214l85 0 0-128 128 0 0 128 85 0-149 150z"/>
<glyph glyph-name="user" unicode="&#57601;" d="M401 135c-67 24-89 45-89 89 0 27 21 18 30 67 4 20 22 0 25 46 0 18-10 23-10 23 0 0 5 27 7 48 3 26-15 93-108 93-93 0-111-67-108-93 2-21 7-48 7-48 0 0-10-5-10-23 3-46 21-26 25-46 9-49 30-40 30-67 0-44-22-65-89-89-67-25-111-50-111-67 0-17 0-57 0-57l512 0c0 0 0 40 0 57 0 17-44 42-111 67z"/>
<glyph glyph-name="user-add" unicode="&#57602;" d="M429 184l0 51 51 0 0 42-51 0 0 51-42 0 0-51-51 0 0-42 51 0 0-51z m-13-120c0 0 0 26-2 40-2 11-17 25-81 49-63 23-60 12-60 55 0 27 15 11 24 64 3 21 6 7 13 40 4 17-2 19-1 27 0 8 1 16 3 33 1 21-18 76-88 76-70 0-89-55-87-76 1-17 2-25 3-33 0-8-6-10-2-27 7-33 10-19 14-40 9-53 23-37 23-64 0-43 4-32-60-55-64-24-79-38-81-49-2-14-2-40-2-40z"/>
<glyph glyph-name="users" unicode="&#57603;" d="M512 31c0 0-1 97-7 107-9 15-29 25-67 41-38 16-50 29-50 58 0 17 11 11 16 43 2 13 13 0 15 30 0 12-6 15-6 15 0 0 3 17 4 31 1 17-9 60-61 60-53 0-63-43-62-60 2-14 4-31 4-31 0 0-5-3-5-15 2-30 12-17 14-30 5-32 17-26 17-43 0-20-6-32-21-43 83-42 94-50 94-87l0-76z m-250 133c-51 22-67 39-67 78 0 23 15 15 22 57 3 18 17 0 19 40 0 16-7 20-7 20 0 0 4 24 5 42 2 22-11 80-82 80-70 0-83-58-81-80 1-18 5-42 5-42 0 0-7-4-7-20 2-40 16-22 19-40 7-42 22-34 22-57 0-39-16-56-67-78-15-6-43-16-43-40l0-93 356 0c0 0 0 55 0 70 0 22-43 42-94 63z"/>
<glyph glyph-name="versions" unicode="&#57604;" d="M32 160l64 0 0 32-32 0 0 128 32 0 0 32-64 0z m192 256l0-320 256 0 0 320z m192-256l-128 0 0 192 128 0z m-288-32l64 0 0 32-32 0 0 192 32 0 0 32-64 0z"/>
<glyph glyph-name="vertical-center" unicode="&#57605;" d="M171 107l64 0 0-86 42 0 0 86 64 0-85 85z m170 298l-64 0 0 86-42 0 0-86-64 0 85-85z m-256-128l0-42 342 0 0 42z"/>
<glyph glyph-name="video" unicode="&#57606;" d="M304 384l-221 0c-19 0-36-14-36-33l0-188c0-18 17-35 36-35l221 0c19 0 33 17 33 35l0 188c0 19-14 33-33 33z m63-85l0-86 98-53 0 192z"/>
<glyph glyph-name="videos" unicode="&#57607;" d="M3 396c-2 0-3-2-3-3l0-367c0-1 1-3 3-3l506 0c2 0 3 2 3 3l0 367c0 1-1 3-3 3z m44 93l0-24 418 0 0 24z m-24-47l0-23 466 0 0 23z m163-163l0-139 163 69z"/>
<glyph glyph-name="vimeo" unicode="&#57608;" d="M417 448c-7 0-15-1-21-2-19-3-86-26-108-94 6 1 11 2 16 2 27 0 45-16 41-53-1-18-10-37-20-56-9-16-24-44-43-44-6 0-13 3-20 10-26 28-24 81-30 116-3 20-7 44-13 65-6 17-19 38-34 43-4 1-8 1-12 1-14 0-29-6-38-11-39-23-69-55-103-82 7-7 9-22 19-23 2 0 3 0 4 0 14 0 28 9 39 9 6 0 12-3 17-11 10-16 13-34 19-51 8-22 14-47 20-73 11-45 25-111 64-127 5-2 10-3 16-3 17 0 37 8 48 14 40 24 72 59 99 94 62 83 96 177 101 204 3 19 3 38-8 53-12 14-33 19-53 19z"/>
<glyph glyph-name="volume-high" unicode="&#57609;" d="M231 104l0 304-95-88-104 0 0-128 104 0z m56 52c21 28 33 63 33 100 0 37-12 72-33 100l-20-16c17-23 28-52 28-84 0-32-11-61-28-84z m67-46c30 41 48 91 48 146 0 55-18 105-48 146l-21-16c27-36 43-81 43-130 0-49-16-94-43-130z m43 323c36-50 58-111 58-177 0-66-22-127-58-177l20-15c40 54 63 120 63 192 0 72-23 138-63 192z"/>
<glyph glyph-name="volume-low" unicode="&#57610;" d="M311 104l0 304-95-88-104 0 0-128 104 0z m56 52c21 28 33 63 33 100 0 37-12 72-33 100l-20-16c17-23 28-52 28-84 0-32-11-61-28-84z"/>
<glyph glyph-name="volume-medium" unicode="&#57611;" d="M270 104l0 304-95-88-104 0 0-128 104 0z m56 52c21 28 33 63 33 100 0 37-12 72-33 100l-20-16c17-23 28-52 28-84 0-32-11-61-28-84z m67-46c30 41 48 91 48 146 0 55-18 105-48 146l-21-16c27-36 43-81 43-130 0-49-16-94-43-130z"/>
<glyph glyph-name="water" unicode="&#57612;" d="M101 510c0 3-5 3-6 0-13-106-80-127-80-201 0-45 38-82 83-82 45 0 83 37 83 82 0 74-67 95-80 201z m316 0c-1 3-6 3-6 0-13-106-80-127-80-201 0-45 38-82 83-82 45 0 83 37 83 82 0 74-67 95-80 201z m-164-228c-13-105-80-127-80-200 0-45 38-82 83-82 45 0 83 37 83 82 0 73-67 95-80 200 0 3-6 3-6 0z"/>
<glyph glyph-name="wifi" unicode="&#57614;" d="M256 416c-80 0-156-30-214-84l-10-10 10-9 32-32 10-10 9 9c45 41 102 64 163 64 60 0 118-23 163-64l9-9 10 10 32 32 10 9-10 10c-58 54-134 84-214 84z m141-160c-38 35-88 54-141 54l-9 0 0 0c-49-2-96-21-132-54l-11-10 10-10 33-32 9-9 10 8c25 22 57 35 90 35 33 0 65-13 91-35l9-8 9 9 33 32 10 10z m-141-160l10 9 53 53 10 10-11 10c-16 11-33 20-62 20-29 0-45-10-61-20l-12-10 11-10 53-53z"/>
<glyph glyph-name="windows" unicode="&#57615;" d="M211 266l-193 0 0 165 193 28z m285 0l-260 0 0 196 260 38z m-285-22l-193 0 0-165 193-28z m285 0l-260 0 0-196 260-38z"/>
<glyph glyph-name="wine-glasses" unicode="&#57616;" d="M219 480c4 21 8 32 8 32l171 0c0 0 21-52 11-139-11-86-78-96-81-160l-1-128c0 0 0-10 9-14 9-3 60-8 60-18 0-10-43-10-84-10-41 0-84 0-84 10 0 10 51 15 60 18 9 4 9 14 9 14l0 131c-2 19-9 33-18 46 11 17 19 37 23 64 12 96-12 154-12 154z m-120-149c-11 86 11 138 11 138l170 0c0 0 22-52 11-138-11-87-77-96-80-160l-1-128c0 0 0-10 9-14 9-4 60-8 60-19 0-10-43-10-84-10-41 0-84 0-84 10 0 11 51 15 60 19 9 4 9 14 9 14l0 130c-5 62-70 73-81 158z"/>
</font>
</defs>
</svg>
